<svg xmlns="http://www.w3.org/2000/svg" viewBox="0 0 397.32 450.17"><defs><style>.cls-1{fill:#fff;}.cls-2{fill:#eaebec;}.cls-3{fill:#f0be25;}.cls-4{fill:#e4a126;}</style></defs><g id="Capa_2" data-name="Capa 2"><g id="svg64"><path id="path118" class="cls-1" d="M1.33,0,1.4,5c0,2.75,8,93.8,17.7,202.33L36.74,404.67l79.3,22.2c43.61,12.21,80.19,22.26,81.29,22.34s38.17-9.87,82.37-22.11c70.87-19.63,80.44-22.58,80.95-25C361.36,398.7,396.06,7.19,396,3l0-3H1.33Z"/><path id="path88" class="cls-2" d="M116.67,428.2l-80-22.36-1.05-5.92C34.69,394.66,0,7.18,0,2.06,0,.21,20.26,0,198.67,0,387,0,397.33.12,397.32,2.33c-.06,9.56-36,402.16-36.86,402.94-1.11,1-155.95,44.13-161.13,44.89-1.46.22-38.66-9.66-82.66-22Zm132.44-79c26.89-7.41,49.28-13.86,49.75-14.33s3.62-32.35,7-70.85,6.47-72.55,6.89-75.67l.76-5.66H197.33V232h62.72l-.62,3c-.35,1.65-1.68,15.83-3,31.51-1.36,16.62-3,29.15-3.87,30.05s-13.62,4.75-28.4,8.69l-26.86,7.16v25.13c0,17.15.46,25.13,1.45,25.13.79,0,23.44-6.07,50.33-13.49Zm63.62-197.51c-.88-6.54-8.73-94.16-8.73-97.47,0-2-4.62-2.2-52.67-2.2H198.67v51.59l23.66.91c13,.5,26.72,1.27,30.45,1.7l6.77.78,1.65,20.18c.9,11.1,2,22.42,2.39,25.17l.75,5H313.5Z"/><path id="path80" class="cls-3" d="M116,426.87l-79.3-22.2L19.1,207.33C9.4,98.8,1.43,7.75,1.4,5L1.33,0H396l0,3c0,4.19-34.68,395.71-35.38,399.09-.51,2.43-10.08,5.38-80.95,25-44.2,12.24-81.27,22.19-82.37,22.11S159.65,439.08,116,426.87Zm133.13-76.74c27.41-7.62,50.23-14.49,50.7-15.26s3.75-34.28,7.28-74.47,6.7-74.12,7.05-75.4c.61-2.2-4.05-2.33-84.51-2.33H144.54l3.62-38.34c2-21.08,3.67-38.38,3.73-38.45s12.56-.47,27.78-.89c25-.69,76.4,1.3,78.12,3,.65.64,4.88,42.15,4.88,47.81,0,2.8.37,2.84,25.83,2.84h25.84l-.61-5.67c-.33-3.12-2.52-27.27-4.86-53.67l-4.26-48L205,51c-79.27-.27-99.64,0-99.65,1.34,0,.92-.58,6.77-1.29,13-1.7,15.09-14.7,160.83-14.7,164.85v3.15H258.9l-.75,5c-.42,2.75-1.74,16.7-2.93,31s-2.56,26.37-3,26.83c-1.24,1.19-51.12,14.51-54.23,14.48-1.45,0-14.33-3.22-28.63-7.14l-26-7.12-1-11.19c-.52-6.15-1.32-14.94-1.77-19.52l-.82-8.34H89.33l.06,5c.1,9.36,6.17,72.34,7,73.22s97.91,28.26,100.89,28.36c1.1,0,24.43-6.16,51.84-13.78Z"/><path id="path78" class="cls-4" d="M116,426.87l-79.3-22.2L19.1,207.33C9.4,98.8,1.43,7.75,1.4,5L1.33,0H396l0,3c0,4.19-34.68,395.71-35.38,399.09-.51,2.43-10.08,5.38-80.95,25-44.2,12.24-81.27,22.19-82.37,22.11S159.65,439.08,116,426.87Zm147.87-29.7c34.88-9.63,64.08-18.18,64.88-19C330,376.88,360.16,46.71,360,35.67L360,32H198.67V50.67H152c-36.44,0-46.67.36-46.68,1.66,0,.92-.58,6.77-1.29,13-1.7,15.09-14.7,160.83-14.7,164.85v3.15H198.67V272c0,30.06-.37,38.66-1.67,38.64-.92,0-13.37-3.22-27.67-7.14l-26-7.12-1-11.19c-.52-6.15-1.32-14.94-1.77-19.52l-.82-8.34H89.33l.06,5c.16,14.31,6.35,72.68,7.8,73.58.88.55,24.07,7.21,51.54,14.81l49.94,13.82V389.6c0,13.79.41,25.07.91,25.07s29.45-7.88,64.33-17.5ZM148,144.69c1.92-20.88,3.75-38.21,4.07-38.5s10.93-.81,23.58-1.16l23-.64v78.28H144.54Z"/></g></g></svg>