<svg xmlns="http://www.w3.org/2000/svg" viewBox="0 0 446.8 503.95"><defs><style>.cls-1{fill:#80bd01;}</style></defs><g id="Capa_2" data-name="Capa 2"><g id="Capa_1-2" data-name="Capa 1"><path class="cls-1" d="M223.3,504a39.17,39.17,0,0,1-19.4-5.2l-61.7-36.5c-9.2-5.2-4.7-7-1.7-8,12.3-4.3,14.8-5.2,27.9-12.7a4.51,4.51,0,0,1,4.6.4l47.4,28.1a5.79,5.79,0,0,0,5.7,0l184.7-106.6a5.92,5.92,0,0,0,2.8-5V145.25a6,6,0,0,0-2.9-5.1L226.1,33.65a5.79,5.79,0,0,0-5.7,0L35.9,140.25a5.84,5.84,0,0,0-2.9,5.1v213.1a5.52,5.52,0,0,0,2.9,4.9l50.6,29.2c27.5,13.7,44.3-2.4,44.3-18.7V163.45a5.29,5.29,0,0,1,5.4-5.3h23.4a5.36,5.36,0,0,1,5.4,5.3V374c0,36.6-20,57.6-54.7,57.6-10.7,0-19.1,0-42.5-11.6l-48.4-27.9A38.89,38.89,0,0,1,0,358.35V145.25a39,39,0,0,1,19.4-33.7L203.9,5a40.49,40.49,0,0,1,38.8,0l184.7,106.7a38.89,38.89,0,0,1,19.4,33.7v213.1a39.13,39.13,0,0,1-19.4,33.7L242.7,498.75A38.89,38.89,0,0,1,223.3,504Zm149.1-210.1c0-39.9-27-50.5-83.7-58-57.4-7.6-63.2-11.5-63.2-24.9,0-11.1,4.9-25.9,47.4-25.9,37.9,0,51.9,8.2,57.7,33.8a5.35,5.35,0,0,0,5.2,4.2h24a5.22,5.22,0,0,0,3.9-1.7,5.57,5.57,0,0,0,1.4-4.1c-3.7-44.1-33-64.6-92.2-64.6-52.7,0-84.1,22.2-84.1,59.5,0,40.4,31.3,51.6,81.8,56.6,60.5,5.9,65.2,14.8,65.2,26.7,0,20.6-16.6,29.4-55.5,29.4-48.9,0-59.6-12.3-63.2-36.6a5.29,5.29,0,0,0-5.3-4.5H187.9a5.27,5.27,0,0,0-5.3,5.3c0,31.1,16.9,68.2,97.8,68.2,58.4-.1,92-23.2,92-63.4Z"/></g></g></svg>