<?xml version="1.0" encoding="utf-8"?>
<!-- Generator: Adobe Illustrator 24.2.0, SVG Export Plug-In . SVG Version: 6.00 Build 0)  -->
<svg version="1.1" id="Capa_1" xmlns="http://www.w3.org/2000/svg" xmlns:xlink="http://www.w3.org/1999/xlink" x="0px" y="0px"
	 viewBox="0 0 87 42" style="enable-background:new 0 0 87 42;" xml:space="preserve">
<style type="text/css">
	.st0{fill:#37474F;}
	.st1{fill-rule:evenodd;clip-rule:evenodd;fill:#FFCF00;}
	.st2{fill-rule:evenodd;clip-rule:evenodd;fill:#4C5859;}
	.st3{opacity:0.1;fill-rule:evenodd;clip-rule:evenodd;fill:url(#Fill-7_1_);enable-background:new    ;}
</style>
<path class="st0" d="M47,18.6c0-2.2-0.7-4-2-5.5S41.8,11,39.7,11s-3.9,0.7-5.3,2.2c-1.4,1.5-2.1,3.3-2.1,5.5c0,2.3,0.7,4.1,2.1,5.5
	c1.4,1.4,3.2,2.2,5.3,2.2c1.7,0,3.1-0.5,4.4-1.4s2.1-2.1,2.5-3.6h-4c-0.2,0.5-0.6,0.9-1.1,1.2C41,22.9,40.4,23,39.8,23
	c-1,0-1.8-0.3-2.4-0.8c-0.6-0.5-1-1.3-1.1-2.3h10.6L47,18.6z M36.3,17c0.2-0.9,0.5-1.5,1.1-2s1.3-0.7,2.2-0.7s1.7,0.3,2.2,0.8
	c0.6,0.5,0.9,1.2,1.1,2h-6.6V17z"/>
<path class="st0" d="M60,11.3v1.8c-1-1.4-2.5-2.1-4.6-2.1c-2,0-3.6,0.7-4.8,2.1s-1.8,3.2-1.8,5.2c0,2.1,0.6,3.8,1.8,5.2
	c1.2,1.4,2.8,2.1,4.8,2.1c1.9,0,3.3-0.6,4.3-1.9v2c0,0.9-0.3,1.6-0.8,2.1s-1.3,0.8-2.3,0.8c-1.6,0-2.6-0.6-2.8-1.9h-4
	c0.1,1.4,0.8,2.6,1.9,3.7c1.1,1.1,2.8,1.7,4.8,1.7c2.2,0,3.9-0.6,5.2-1.9s1.9-2.9,1.9-4.8V11.3H60z M58.8,21.2
	c-0.7,0.7-1.5,1.1-2.6,1.1s-1.9-0.4-2.6-1.1s-1-1.6-1-2.8c0-1.2,0.3-2.1,1-2.8s1.5-1.1,2.6-1.1s1.9,0.4,2.6,1.1c0.7,0.7,1,1.6,1,2.8
	C59.8,19.5,59.5,20.4,58.8,21.2z"/>
<path class="st0" d="M76.5,11.3v1.8C75.6,11.7,74,11,72,11s-3.6,0.7-4.8,2.1c-1.2,1.4-1.8,3.2-1.8,5.2c0,2.1,0.6,3.8,1.8,5.2
	c1.2,1.4,2.8,2.1,4.8,2.1c1.9,0,3.3-0.6,4.3-1.9v2c0,0.9-0.3,1.6-0.8,2.1s-1.3,0.8-2.3,0.8c-1.6,0-2.6-0.6-2.8-1.9h-4
	c0.1,1.4,0.8,2.6,1.9,3.7s2.8,1.7,4.8,1.7c2.2,0,3.9-0.6,5.2-1.9s1.9-2.9,1.9-4.8V11.3H76.5z M75.4,21.2c-0.7,0.7-1.5,1.1-2.6,1.1
	s-1.9-0.4-2.6-1.1s-1-1.6-1-2.8c0-1.2,0.3-2.1,1-2.8s1.5-1.1,2.6-1.1s1.9,0.4,2.6,1.1c0.7,0.7,1,1.6,1,2.8
	C76.4,19.5,76,20.4,75.4,21.2z"/>
<g id="Group-2">
	<g id="Group-6">
		<g id="Group-3" transform="translate(0.000000, 0.039826)">
			<g id="Clip-2">
			</g>
			<path id="Fill-1" class="st1" d="M13,36.3c-21.9,0-11.6-36.1,0-36.1C24.6,0.3,34.9,36.3,13,36.3"/>
		</g>
		<path id="Fill-4" class="st2" d="M17.1,5.6c0.1,0-1.3,4.5-1.3,5.4c0,1,1,1.5,1.3,2.7c0.1,0.9-0.5,1.7-0.4,2.3
			c0.2,0.9,1.7,0.6,1.8,1.5c-0.1,1.1-0.8,1.7-1,2.7c0.3,0.1,0.6,0.1,0.7,0.2s-3,4.4-2.7,5.3c-0.6-0.7,0.2-1.6,0.6-2.3
			c0.4-0.8,0.9-1.5,1.1-2.3c-0.1-0.2-0.6,0-0.6-0.3c0.2-1.2,1-2.3,0.9-3c0.1-0.3-1.3-1.3-2.4-2c-0.8-0.4-1-0.9-3.7-0.7
			c-0.2,0-0.7-0.2-0.7-0.5c0.7,1,1.8-0.3,3,0c0.9,0.2,2,0.7,2.3,0.7c0.2-0.3,0.6-0.6,0.4-1.4c-0.2-0.7-1.1-1.1-1.3-2
			c-0.3-1.1,0.6-3.3,0.6-3.3S16.9,5.6,17.1,5.6"/>
	</g>
	<g id="Clip-8">
	</g>
	
		<radialGradient id="Fill-7_1_" cx="-1296.8328" cy="-1095.6519" r="2.1947" gradientTransform="matrix(-6 0 0 -1.0546 -7767.9966 -1116.4745)" gradientUnits="userSpaceOnUse">
		<stop  offset="0" style="stop-color:#304346;stop-opacity:0.9987"/>
		<stop  offset="1" style="stop-color:#4B5759;stop-opacity:0"/>
	</radialGradient>
	<path id="Fill-7" class="st3" d="M13,42c7.2,0,13-1.3,13-3s-5.8-3-13-3S0,37.3,0,39S5.8,42,13,42z"/>
</g>
</svg>
