<svg width="99" height="50" fill="none" xmlns="http://www.w3.org/2000/svg"><path d="M50.086 21.122c-2.811 0-4.94-.852-6.431-2.555-1.49-1.704-2.257-4.132-2.257-7.283 0-3.152.766-5.58 2.257-7.283 1.49-1.703 3.663-2.555 6.43-2.555 2.77 0 4.898.852 6.432 2.555 1.49 1.704 2.257 4.131 2.257 7.283 0 3.151-.767 5.579-2.257 7.283-1.49 1.703-3.663 2.555-6.431 2.555Zm0-2.811c3.577 0 5.366-2.342 5.366-7.07 0-2.3-.468-4.088-1.363-5.238-.894-1.193-2.257-1.789-4.003-1.789s-3.11.596-4.003 1.789c-.895 1.192-1.363 2.938-1.363 5.238 0 4.728 1.788 7.07 5.366 7.07ZM62.053 20.784V1.747h3.067l9.114 13.67V1.748h3.236v19.037h-3.066L65.29 7.155v13.629h-3.237ZM81.429 20.784V1.747h12.052v2.81h-8.773v5.239h8.05v2.768h-8.05v5.451h9.072v2.769H81.429ZM46.078 37.434c-1.108 0-2.002-.34-2.598-1.065-.597-.681-.895-1.703-.895-3.023s.298-2.3.895-3.024c.596-.724 1.49-1.065 2.598-1.065 1.107 0 2.001.34 2.597 1.065.597.724.895 1.703.895 3.024 0 1.32-.298 2.3-.895 3.023-.638.724-1.49 1.065-2.597 1.065Zm0-.894c.809 0 1.405-.256 1.83-.81.427-.553.64-1.32.64-2.384 0-1.065-.213-1.832-.64-2.385-.425-.554-1.021-.81-1.83-.81-1.662 0-2.47 1.065-2.47 3.195 0 1.064.212 1.831.638 2.385.383.553 1.022.809 1.831.809ZM50.933 37.31v-5.664h.681l.213 1.065c.384-.724.895-1.065 1.576-1.065.128 0 .255 0 .383.043v.851h-.255c-.426 0-.767.128-1.022.341-.256.213-.469.554-.554 1.022v3.407h-1.022ZM58.253 37.309l-.17-.895c-.47.682-1.108 1.023-1.875 1.023-.553 0-1.022-.17-1.362-.469-.341-.34-.511-.767-.511-1.278 0-.596.212-1.064.596-1.362.426-.341.98-.512 1.703-.512h1.32v-.34c0-.426-.085-.682-.255-.852-.17-.17-.468-.256-.894-.256-.256 0-.554.043-.895.086-.298.042-.681.17-1.064.298v-.81c.255-.127.596-.212.937-.297.34-.086.68-.086.979-.086 1.405 0 2.13.64 2.13 1.917v3.875h-.64v-.042Zm-1.96-.639c.341 0 .64-.085.938-.298.298-.213.51-.469.68-.767v-1.064h-1.234c-.511 0-.852.085-1.108.255-.255.17-.34.468-.34.81 0 .34.085.596.255.766.256.17.511.298.81.298ZM64.482 36.247v.809c-.468.255-1.022.383-1.703.383-.895 0-1.534-.255-1.96-.767-.425-.51-.68-1.277-.68-2.257 0-.937.255-1.618.723-2.13.469-.51 1.15-.766 2.002-.766.553 0 1.022.128 1.49.341v.81a2.765 2.765 0 0 0-1.32-.342c-1.235 0-1.874.682-1.874 2.087 0 .767.128 1.32.426 1.661.298.341.724.554 1.363.554.256 0 .511-.043.767-.085.17-.085.468-.17.766-.298ZM65.624 37.309V29.94l-.553-.34v-.384h1.533v8.134h-.98v-.042ZM72.527 37.013c-.213.128-.468.213-.809.298a4.64 4.64 0 0 1-1.107.128c-.895 0-1.576-.255-2.045-.767-.468-.51-.681-1.235-.681-2.257 0-.937.213-1.66.639-2.172.426-.51 1.065-.724 1.874-.724 1.576 0 2.385.852 2.385 2.598v.639h-3.918c.042.639.213 1.107.51 1.405.299.299.725.426 1.32.426.342 0 .64-.042.938-.085.298-.085.596-.17.894-.298v.81Zm-2.13-4.684c-.468 0-.851.127-1.107.425-.255.299-.425.682-.425 1.235h2.98c0-.596-.127-1.022-.34-1.277-.213-.256-.596-.384-1.107-.384ZM76.695 37.307v-7.88h.937l4.216 6.219v-6.218h.98v7.879h-.937l-4.216-6.218v6.218h-.98ZM88.84 37.013c-.213.128-.468.213-.809.298a4.64 4.64 0 0 1-1.107.128c-.894 0-1.576-.255-2.044-.767-.469-.51-.682-1.235-.682-2.257 0-.937.213-1.66.64-2.172.425-.51 1.064-.724 1.873-.724 1.576 0 2.385.852 2.385 2.598v.639h-3.918c.042.639.213 1.107.51 1.405.299.299.725.426 1.321.426.34 0 .639-.042.937-.085.298-.085.596-.17.894-.298v.81Zm-2.129-4.684c-.468 0-.852.127-1.107.425-.256.299-.426.682-.426 1.235h2.981c0-.596-.128-1.022-.34-1.277-.214-.256-.597-.384-1.108-.384ZM89.642 37.31l2.044-2.895-1.959-2.726h1.107l1.448 2.13 1.49-2.13h.98l-1.959 2.726 2.045 2.938H93.73l-1.575-2.342-1.619 2.342h-.894v-.042ZM96.246 35.605v-3.152h-.98v-.51l.98-.342.383-1.533h.597v1.576h1.235v.81h-1.235v3.108c0 .639.255.937.809.937h.255c.086 0 .17 0 .213-.043v.852c-.085.043-.213.043-.298.043h-.34c-.554 0-.98-.128-1.236-.426-.213-.298-.383-.724-.383-1.32ZM42.886 49.875v-7.88h4.855v.853h-3.833v2.598h3.535v.851h-3.535v2.683h3.961v.852h-4.983v.043ZM53.236 49.872l-.17-.894c-.214.34-.512.596-.81.766-.34.17-.681.256-1.107.256-.724 0-1.32-.256-1.746-.767-.426-.51-.64-1.235-.64-2.172s.214-1.66.64-2.172c.425-.51 1.022-.766 1.788-.766.298 0 .64.042.937.17.298.128.554.298.81.511v-3.066h.979v8.134h-.681Zm-3.45-2.81c0 .68.128 1.234.383 1.575.256.383.639.554 1.15.554.34 0 .639-.086.937-.256.298-.17.511-.426.681-.767v-2.512c-.425-.511-.98-.767-1.575-.767-.512 0-.895.17-1.193.554-.255.383-.383.894-.383 1.618ZM55.45 47.702V44.21h.98v3.45c0 .468.085.852.298 1.107.213.256.511.383.937.383.34 0 .639-.127.98-.34.298-.256.51-.554.681-.937v-3.706h.98v5.665h-.682l-.17-.98c-.213.34-.511.597-.852.81-.34.212-.724.297-1.15.297-.639 0-1.107-.212-1.448-.596-.383-.34-.554-.894-.554-1.66ZM65.884 48.807v.81c-.469.255-1.022.383-1.704.383-.894 0-1.533-.256-1.959-.767-.426-.511-.681-1.278-.681-2.257 0-.937.255-1.618.724-2.13.468-.51 1.15-.766 2.001-.766.554 0 1.022.128 1.49.34v.81a2.766 2.766 0 0 0-1.32-.341c-1.235 0-1.873.681-1.873 2.087 0 .767.127 1.32.426 1.66.298.341.724.554 1.362.554.256 0 .512-.042.767-.085.213-.085.468-.17.767-.298ZM70.604 49.872l-.17-.895C69.965 49.66 69.326 50 68.56 50c-.554 0-1.022-.17-1.363-.469-.34-.34-.511-.767-.511-1.278 0-.596.213-1.064.596-1.362.426-.341.98-.511 1.704-.511h1.32v-.341c0-.426-.085-.682-.255-.852-.17-.17-.469-.255-.895-.255-.255 0-.553.042-.894.085-.298.042-.682.17-1.065.298v-.81c.256-.127.596-.212.937-.297.34-.086.681-.086.98-.086 1.405 0 2.129.64 2.129 1.917v3.875h-.639v-.042Zm-1.916-.639c.34 0 .638-.085.937-.298.298-.213.51-.469.681-.767v-1.065h-1.235c-.511 0-.852.086-1.107.256-.256.17-.341.468-.341.81 0 .34.085.596.255.766.213.17.469.298.81.298ZM73.034 48.17v-3.152h-.98v-.511l.98-.341.383-1.533h.596v1.575h1.235v.81H73.97v3.109c0 .639.256.937.81.937h.255c.085 0 .17 0 .213-.043v.852c-.085.042-.213.042-.298.042h-.34c-.554 0-.98-.127-1.236-.425-.213-.299-.34-.724-.34-1.32ZM76.703 49.873v-4.897l-.553-.341v-.383h1.533v5.664h-.98v-.043Zm-.255-6.984v-.852h1.192v.895h-1.192v-.043ZM81.599 50c-.852 0-1.534-.256-2.002-.767-.468-.511-.724-1.235-.724-2.172s.256-1.661.724-2.172c.469-.511 1.15-.767 2.002-.767.852 0 1.533.256 2.001.767.469.511.724 1.235.724 2.172s-.255 1.618-.724 2.172c-.468.511-1.15.767-2.001.767Zm0-.81c.553 0 .98-.17 1.277-.553.298-.384.426-.895.426-1.619s-.128-1.235-.426-1.618-.724-.554-1.277-.554c-.554 0-.98.17-1.278.554-.298.383-.426.894-.426 1.618 0 .724.128 1.235.426 1.619.298.383.724.553 1.278.553ZM85.558 49.872v-5.664h.682l.17.98c.256-.342.511-.597.895-.81.383-.213.723-.298 1.192-.298.639 0 1.15.213 1.49.596.341.383.512.937.512 1.704v3.492h-.98v-3.45c0-.98-.426-1.49-1.278-1.49-.34 0-.681.127-.98.34-.297.213-.51.511-.68.895v3.705h-1.023Z" fill="#67605B"/><path d="M23.552 30.92C18.44 31.603 0 30.496 0 30.496l1.235-7.666c0-.085.085-.17.17-.213.597-.128 3.11-.639 9.881-.639 6.644 0 14.608.469 17.12.64.47.042.81.17.81.638v2.513c.042 2.853.51 4.301-5.665 5.153Z" fill="#81A378"/><path d="M29.685 19.504c-.042.085-.127.128-.255.128-.937.17-6.26 1.022-11.584.511-4.728-.468-8.05-.553-9.157-.553-.213 0-.383-.213-.383-.426l.298-5.026c.128-1.703 2.726-2.981 4.43-3.066l17.375-.724c.17 0 .341.085.384.255.17.469.51 1.533.553 3.492.085 2.982-1.277 4.94-1.66 5.41Z" fill="#82B1B4"/><path d="m30.319 8.22-12.223.638c-1.32.128-2.428-1.277-2.215-2.81L16.733 0h12.606c2.087.043.98 8.22.98 8.22Z" fill="#DA8A40"/></svg>