<svg xmlns="http://www.w3.org/2000/svg" viewBox="0 0 383 383"><defs><style>.cls-1{fill:#353535;}.cls-2{fill:#0acf83;}.cls-3{fill:#a259ff;}.cls-4{fill:#f24e1e;}.cls-5{fill:#ff7262;}.cls-6{fill:#1abcfe;}</style></defs><g id="Capa_2" data-name="Capa 2"><g id="Layer_1" data-name="Layer 1"><path class="cls-1" d="M331,383H52A52.15,52.15,0,0,1,0,331V52A52.15,52.15,0,0,1,52,0H331a52.15,52.15,0,0,1,52,52V331A52.15,52.15,0,0,1,331,383Z"/><path id="path0_fill" data-name="path0 fill" class="cls-2" d="M151.5,311.5a40,40,0,0,0,40-40v-40h-40a40,40,0,0,0,0,80Z"/><path id="path1_fill" data-name="path1 fill" class="cls-3" d="M111.5,191.5a40,40,0,0,1,40-40h40v80h-40A40,40,0,0,1,111.5,191.5Z"/><path id="path1_fill-2" data-name="path1 fill" class="cls-4" d="M111.5,111.5a40,40,0,0,1,40-40h40v80h-40A40,40,0,0,1,111.5,111.5Z"/><path id="path2_fill" data-name="path2 fill" class="cls-5" d="M191.5,71.5h40a40,40,0,0,1,0,80h-40Z"/><path id="path3_fill" data-name="path3 fill" class="cls-6" d="M271.5,191.5a40,40,0,1,1-40-40A40,40,0,0,1,271.5,191.5Z"/></g></g></svg>