<svg width="278" height="252" viewBox="0 0 278 252" fill="none" xmlns="http://www.w3.org/2000/svg">
<path d="M212.693 173.314L212.099 173.409L210.228 173.636L208.891 173.788C208.255 173.859 207.611 173.92 206.971 173.982L205.666 174.11L203.626 174.275L202.421 174.37C201.636 174.428 200.852 174.473 200.067 174.518L199.151 174.572C198.05 174.63 196.949 174.678 195.848 174.716H195.563L194.712 174.737C188.161 182.608 179.957 188.942 170.681 193.29C161.405 197.638 151.284 199.894 141.038 199.897C138.816 199.897 136.624 199.785 134.456 199.583C137.346 204.087 140.406 208.402 143.606 212.481C154.291 226.092 166.43 236.816 177.797 242.681C189.163 248.546 199.229 249.482 206.835 245.32C222.524 236.684 224.898 207.23 212.693 173.314Z" fill="#231F20"/>
<path d="M214.399 89.6312L213.986 90.5634C213.788 91.0377 213.573 91.5079 213.383 91.9822C213.127 92.572 212.867 93.1577 212.607 93.7475C212.396 94.2177 212.194 94.6879 211.971 95.1581C211.702 95.7479 211.426 96.3378 211.145 96.9276C210.926 97.3978 210.707 97.8638 210.48 98.3299C210.195 98.9238 209.902 99.5178 209.609 100.108C209.382 100.57 209.155 101.027 208.924 101.485C208.618 102.091 208.304 102.694 207.991 103.3C207.759 103.741 207.532 104.187 207.297 104.628L206.628 105.865C210.553 116.527 211.815 127.985 210.304 139.244C208.793 150.503 204.555 161.224 197.958 170.476C203.325 170.225 208.598 169.738 213.746 169.004C230.877 166.562 246.244 161.423 257.02 154.527C267.797 147.631 273.635 139.386 273.825 130.724C274.246 112.807 249.882 96.0284 214.399 89.6312Z" fill="#231F20"/>
<path d="M259.622 102.232C248.474 94.6467 233.424 88.9589 215.951 85.7335C222.078 69.7757 225.006 54.5932 224.411 41.6875C223.75 27.4496 218.837 17.1548 210.195 11.9125C201.323 6.55055 189.58 7.08261 176.236 13.5004C164.093 19.3408 151.636 29.5243 140.092 43.0239C129.32 29.7387 117.619 19.6212 106.132 13.686C93.4611 7.11974 82.0779 6.22471 73.2133 11.0834C64.1299 16.0659 58.717 26.501 57.6105 41.2545C56.603 54.6799 59.2083 70.5387 65.1373 87.2844C48.2339 89.9612 33.6096 95.0426 22.7177 101.997C10.7028 109.685 4.23297 119.085 4.00589 129.181C3.7788 139.546 10.1248 149.429 22.3627 157.765C33.5105 165.35 48.5601 171.037 66.0374 174.263C59.9061 190.221 56.9788 205.403 57.5733 218.309C58.2339 232.547 63.1472 242.842 71.7889 248.084C75.8227 250.53 80.4594 251.751 85.5544 251.751C91.6733 251.751 98.4735 249.998 105.748 246.496C117.895 240.668 130.348 230.484 141.909 216.985C152.677 230.27 164.378 240.387 175.864 246.323C183.168 250.101 190.043 251.998 196.257 251.998C200.631 252.052 204.947 250.99 208.796 248.913C217.879 243.93 223.288 233.495 224.395 218.742C225.406 205.316 222.797 189.458 216.868 172.712C233.771 170.035 248.395 164.97 259.287 158.004C271.302 150.312 277.772 140.912 277.995 130.815C278.206 120.45 271.859 110.567 259.622 102.232ZM273.85 130.724C273.66 139.386 267.846 147.614 257.045 154.527C246.244 161.44 230.902 166.562 213.771 169.004C208.622 169.738 203.342 170.241 197.982 170.476C204.58 161.224 208.817 150.503 210.328 139.244C211.839 127.985 210.578 116.527 206.653 105.865L207.322 104.628C207.557 104.187 207.784 103.741 208.015 103.3C208.329 102.694 208.643 102.091 208.949 101.485C209.18 101.027 209.407 100.57 209.634 100.108C209.927 99.5178 210.22 98.9238 210.505 98.3299C210.732 97.8638 210.951 97.3978 211.17 96.9276C211.446 96.3378 211.723 95.7479 211.996 95.1581C212.21 94.6879 212.408 94.2177 212.631 93.7475C212.892 93.1577 213.152 92.572 213.408 91.9822C213.614 91.5079 213.821 91.0377 214.01 90.5634L214.423 89.6312C249.882 96.0284 274.246 112.807 273.85 130.724ZM177.755 242.66C166.389 236.787 154.25 226.063 143.564 212.46C140.365 208.381 137.309 204.067 134.415 199.563C136.583 199.765 138.775 199.876 140.996 199.876C151.243 199.873 161.363 197.618 170.639 193.269C179.915 188.921 188.12 182.587 194.671 174.716L195.522 174.696H195.806C196.908 174.66 198.009 174.612 199.11 174.551L200.026 174.498C200.811 174.452 201.595 174.407 202.38 174.349L203.585 174.255L205.625 174.09L206.93 173.962C207.57 173.9 208.214 173.838 208.849 173.768L210.187 173.615L212.099 173.409L212.71 173.331C224.898 207.23 222.524 236.684 206.793 245.3C199.188 249.461 189.147 248.55 177.755 242.66ZM73.9359 244.574C66.504 240.078 62.2967 230.934 61.7021 218.131C61.1076 205.329 64.3405 189.495 70.7856 173.454C72.722 168.641 74.9392 163.84 77.3917 159.08C82.1405 169.401 89.329 178.413 98.3383 185.342C107.348 192.272 117.908 196.91 129.109 198.857C132.254 203.971 135.659 208.92 139.312 213.685C116 241.184 89.2703 253.871 73.9359 244.574ZM8.13472 129.276C8.32877 120.615 14.138 112.366 24.939 105.474C35.7401 98.5815 51.0745 93.4341 68.2216 90.9923C69.2827 90.8439 70.352 90.7036 71.4214 90.5799L72.4743 90.4603L74.679 90.2169L75.9177 90.1014L77.9821 89.9158L79.2455 89.8168C79.9516 89.7632 80.6576 89.7179 81.3677 89.6725L82.5734 89.6024C83.0482 89.5735 83.523 89.557 83.9937 89.5322C77.3945 98.7841 73.1555 109.505 71.6445 120.765C70.1335 132.024 71.3963 143.482 75.3231 154.143C72.4668 159.414 69.8855 164.828 67.5898 170.365C32.1067 163.968 7.74248 147.189 8.13472 129.276ZM104.237 17.3362C115.6 23.2096 127.743 33.9334 138.424 47.5361C141.628 51.6153 144.683 55.9296 147.578 60.4336C145.41 60.2315 143.213 60.1201 140.996 60.1201C130.75 60.1228 120.629 62.3783 111.353 66.7264C102.077 71.0746 93.8723 77.4089 87.3215 85.2798C81.2992 85.4437 75.2893 85.9173 69.3157 86.6987C57.1026 52.7826 59.4684 23.3127 75.1951 14.6965C82.8005 10.5349 92.8418 11.4464 104.237 17.3362ZM208.053 15.4389C215.464 19.9306 219.696 29.0747 220.286 41.8773C220.877 54.6799 217.648 70.514 211.203 86.5543C209.276 91.369 207.074 96.1604 204.597 100.928C199.849 90.6098 192.664 81.5975 183.659 74.6665C174.654 67.7355 164.098 63.0933 152.9 61.1389C152.652 60.7264 152.408 60.314 152.157 59.9386C151.905 59.5633 151.628 59.1137 151.36 58.7013C150.994 58.1238 150.623 57.5478 150.249 56.9731L149.403 55.7027C149.036 55.1528 148.665 54.6029 148.288 54.0529C147.999 53.6405 147.706 53.228 147.412 52.7867C147.041 52.2505 146.665 51.7157 146.285 51.1822C145.988 50.7698 145.682 50.3573 145.381 49.9449C145.001 49.4211 144.621 48.9014 144.233 48.3817L143.313 47.1443C143.106 46.8762 142.9 46.5999 142.697 46.3194C165.988 18.8128 192.718 6.12572 208.053 15.4389ZM195.493 146.682C195.538 149.272 195.534 151.982 195.575 154.762C195.548 155.74 195.306 156.701 194.865 157.575C194.353 158.715 193.637 159.753 192.751 160.635C191.587 161.786 190.414 162.924 189.275 164.013C188.593 164.665 188.011 164.983 187.768 164.838C187.454 164.653 187.305 163.98 187.355 163.007C187.475 159.258 187.495 155.628 187.524 152.18C187.524 151.957 187.524 151.846 187.524 151.623L187.016 151.446C186.442 151.248 185.216 150.279 183.366 145.985C181.888 142.557 181.095 139.353 181.091 136.762C181.091 135.851 181.091 135.397 181.091 134.49C181.086 133.649 181.346 132.828 181.835 132.143C182.035 131.838 182.308 131.587 182.629 131.413C182.951 131.24 183.311 131.149 183.676 131.149C184.836 131.104 185.98 131.058 187.099 131.021H187.235C187.517 131.015 187.796 131.071 188.054 131.185C188.311 131.299 188.541 131.468 188.726 131.681C189.142 132.128 189.368 132.72 189.353 133.331C189.374 133.772 189.386 133.991 189.407 134.432C189.444 137.182 189.903 139.91 190.769 142.52C190.873 142.821 190.922 142.974 191.021 143.275L192.305 142.792C192.342 142.644 192.359 142.57 192.396 142.417C193.129 139.73 193.478 136.953 193.432 134.168C193.432 133.817 193.432 133.467 193.432 133.116V133.063C193.4 132.496 193.592 131.94 193.965 131.512C194.147 131.29 194.38 131.114 194.643 130.998C194.906 130.883 195.193 130.831 195.48 130.848C196.49 130.848 197.48 130.848 198.449 130.848C198.993 130.819 199.528 130.992 199.952 131.335C200.094 131.434 200.214 131.562 200.302 131.712C200.391 131.861 200.446 132.028 200.464 132.201C200.493 132.679 200.509 132.922 200.538 133.405C200.612 134.642 200.158 136.379 198.982 139.357C197.648 142.685 196.546 144.95 195.637 146.187L195.489 146.393C195.489 146.513 195.493 146.566 195.493 146.67V146.682ZM167.883 167.375C167.751 166.826 167.685 166.55 167.557 166.005C166.273 167.358 165.629 168.039 164.328 169.396C164.328 169.532 164.328 169.602 164.328 169.738C164.237 172.44 164.138 175.224 164.019 178.127C163.982 179.67 163.639 181.19 163.007 182.598C162.367 184.092 161.603 185.073 160.744 185.51C159.44 186.17 158.135 186.777 156.868 187.313C156.38 187.519 155.823 187.647 155.278 186.558C154.713 185.312 154.466 183.946 154.559 182.582C155.022 168.509 155.051 154.213 155.266 140.281C155.25 138.352 155.674 136.445 156.504 134.704C157.157 133.417 157.834 132.675 158.375 132.613C161.946 132.382 165.645 132.139 169.345 131.908C171.43 131.953 173.271 132.955 174.828 134.861C176.316 136.59 177.372 138.646 177.908 140.862C178.407 143.171 178.611 145.534 178.515 147.895C178.391 151.937 177.4 155.471 175.563 158.42L175.282 158.87L175.55 159.282C177.136 161.815 177.982 164.995 178.181 169.293C178.14 170.629 177.822 171.942 177.247 173.149C176.757 174.423 175.95 175.551 174.902 176.428C173.614 177.41 172.309 178.367 171.029 179.262C170.026 179.967 169.791 179.592 169.613 179.286C169.1 178.335 168.832 177.27 168.833 176.189C168.639 171.986 168.292 169.078 167.883 167.362V167.375ZM150.365 178.523C150.312 180.591 150.248 182.707 150.171 184.871C150.136 186.085 149.897 187.284 149.465 188.418C149.118 189.305 148.717 189.887 148.329 190.068C141.723 191.025 137.053 190.98 130.476 189.8C130.348 189.755 129.65 189.387 128.692 186.5C127.945 184.121 127.541 181.648 127.495 179.154C127.495 178.165 127.495 177.67 127.462 176.68C127.264 164.937 126.801 153.058 126.636 141.456C126.554 139.601 126.906 137.752 127.664 136.057C128.259 134.82 128.874 134.131 129.365 134.094C136 133.904 142.623 133.545 149.25 133.162C149.531 133.186 149.931 133.314 150.327 134.011C150.721 134.737 150.916 135.554 150.893 136.379C150.893 138.062 150.893 139.753 150.893 141.452C150.902 142.331 150.701 143.199 150.307 143.984C149.861 144.867 149.398 145.028 149.2 145.077C145.162 145.49 141.079 145.729 137.082 145.824H136.227C136.227 146.166 136.227 146.34 136.227 146.682C136.252 149.201 136.277 151.754 136.302 154.341C136.302 154.659 136.302 154.816 136.302 155.129H137.09C140.278 155.1 143.531 154.927 146.748 154.613C147.008 154.613 147.384 154.758 147.751 155.463C148.147 156.257 148.336 157.138 148.3 158.024C148.3 159.126 148.3 159.674 148.271 160.78C148.271 161.766 148.063 162.741 147.66 163.642C147.346 164.335 146.983 164.752 146.587 164.879C143.492 165.247 140.376 165.408 137.26 165.362H136.364C136.364 165.717 136.364 165.894 136.364 166.253C136.364 169.016 136.364 171.85 136.364 174.77C136.364 175.075 136.364 175.224 136.364 175.529L137.128 175.558C141.102 175.687 145.08 175.411 148.998 174.733C149.163 174.733 149.518 174.815 149.877 175.595C150.26 176.521 150.427 177.523 150.365 178.523ZM98.1349 160.375C97.8294 162.207 97.272 163.428 96.5247 163.902L96.1118 164.154C96.1531 164.351 96.1779 164.45 96.2233 164.648C96.6362 166.455 97.0243 168.361 97.4619 170.299C97.7014 171.404 97.7303 172.316 97.5115 172.906C97.4894 172.967 97.4618 173.027 97.4289 173.083C97.2773 173.038 97.1367 172.962 97.016 172.86C96.0788 172.122 95.125 171.26 94.1795 170.386C93.3387 169.537 92.6625 168.54 92.1853 167.445C91.6283 166.326 91.1976 165.149 90.9012 163.935C90.5131 162.211 90.125 160.561 89.7493 158.985C89.7286 158.899 89.7162 158.858 89.6956 158.771L89.4685 158.515C87.7838 156.413 86.3355 154.132 85.1498 151.714C84.1632 149.79 83.3601 147.778 82.7509 145.704C82.3271 144.275 82.0504 142.806 81.9251 141.32C81.8632 140.227 81.8137 139.105 81.7889 138.049C81.7647 136.958 81.9238 135.871 82.2596 134.832C82.5526 133.887 83.149 133.066 83.9565 132.494C84.9038 131.838 86.0685 131.575 87.2059 131.759C88.1143 131.919 89.0446 132.073 89.997 132.221C91.6188 132.598 93.0499 133.547 94.0267 134.894C95.3284 136.636 96.2715 138.618 96.8013 140.726C97.4331 143.007 97.8479 145.342 98.04 147.701C98.1886 149.718 98.3248 151.825 98.4528 153.888C98.586 156.058 98.4821 158.236 98.1432 160.384L98.1349 160.375ZM159.25 77.6824C160.633 75.8058 162.285 75.3562 164.308 76.3007C165.959 77.2411 167.611 78.3011 169.237 79.4106C170.81 80.6549 172.176 82.1403 173.284 83.8115C174.421 85.4964 175.335 87.3207 176.005 89.2394C176.712 91.3633 177.146 93.5683 177.297 95.8016C177.338 97.2575 177.363 97.9876 177.404 99.4477C177.342 100.656 177.045 100.974 176.921 101.056C176.876 101.085 176.74 101.176 176.356 101.056C174.407 100.182 172.408 99.3652 170.41 98.6269C169.345 98.0948 168.692 96.709 168.614 94.824C168.54 93.1742 168.494 92.3493 168.226 91.8172L168.197 91.7678C167.784 91.079 167.264 90.6748 166.711 90.6294C166.506 90.614 166.302 90.6561 166.12 90.7509C165.938 90.8456 165.787 90.9893 165.683 91.1656C165.245 91.875 165.076 93.1866 164.943 95.0715C164.833 96.6278 164.759 98.2378 164.721 99.9014C164.758 102.974 164.778 104.521 164.807 107.623C164.877 109.169 164.989 110.728 165.138 112.246C165.286 113.764 165.484 115.208 165.963 116.086C166.07 116.31 166.231 116.504 166.432 116.65C166.632 116.796 166.866 116.89 167.112 116.922C167.358 116.955 167.609 116.926 167.841 116.838C168.073 116.749 168.279 116.604 168.441 116.416L168.494 116.354C168.837 115.909 168.849 115.15 168.878 113.636C168.878 112.663 169.122 111.929 169.518 111.574C169.622 111.483 169.743 111.414 169.875 111.371C170.006 111.329 170.145 111.313 170.282 111.326C172.243 111.739 174.237 112.18 176.207 112.687C176.579 112.828 177.549 113.261 177.772 115.463C177.797 116.767 177.805 117.414 177.825 118.722C177.735 120.784 177.413 122.36 176.801 123.494C176.234 124.586 175.366 125.493 174.299 126.109C173.088 126.8 171.736 127.212 170.344 127.313C168.28 127.358 167.256 127.387 165.183 127.453C162.945 127.346 161.137 126.364 159.663 124.442C158.098 122.38 156.971 119.74 156.314 116.565C155.618 113.278 155.234 109.933 155.166 106.575C155.117 103.58 155.092 100.442 155.088 97.2864C155.111 93.6254 155.436 89.9725 156.058 86.3646C156.69 82.6195 157.763 79.6952 159.25 77.6824ZM149.836 89.2064C150.199 100.656 150.521 112.176 150.967 123.551C151.024 124.693 150.737 125.825 150.142 126.802C149.942 127.199 149.639 127.537 149.266 127.779C148.892 128.021 148.46 128.159 148.015 128.179C146.653 128.249 145.253 128.352 143.924 128.385C143.098 128.423 142.441 128.047 141.9 127.202C141.286 126.211 140.963 125.068 140.967 123.902C140.922 121.58 140.835 119.196 140.769 116.804C140.769 116.478 140.769 116.317 140.744 115.979L139.948 116.02C138.986 116.065 138.019 116.119 137.057 116.177L136.273 116.226C136.273 116.54 136.273 116.701 136.273 117.018C136.252 119.419 136.211 121.803 136.215 124.141C136.233 125.322 135.937 126.486 135.356 127.515C134.84 128.41 134.213 128.847 133.383 128.889L129.382 129.066C128.963 129.088 128.547 128.99 128.182 128.785C127.816 128.58 127.517 128.275 127.317 127.907C126.721 126.969 126.424 125.871 126.467 124.76C126.636 113.36 126.735 101.795 126.967 90.3118C127.206 85.1107 127.879 79.588 130.109 74.8984C131.781 71.3678 134.142 69.4622 136.962 69.3261C137.883 69.2642 138.816 69.2436 139.725 69.2354C142.512 69.2065 144.894 70.9141 146.583 74.2879C148.841 78.8084 149.543 84.1745 149.836 89.2064ZM121.822 83.8734C121.831 85.0238 121.628 86.1661 121.223 87.2431C120.893 88.1052 120.493 88.6578 120.034 88.8929C116.122 90.1327 112.298 91.6361 108.589 93.3928L108.077 93.6362V94.1724C108.077 96.7626 108.106 99.2703 108.135 101.712C108.135 102.124 108.135 102.335 108.135 102.747L109.146 102.376C112.061 101.3 115.047 100.314 118.011 99.4889C118.176 99.4889 118.511 99.4889 118.882 100.182C119.279 100.978 119.478 101.858 119.46 102.747C119.46 103.655 119.481 104.554 119.489 105.461C119.512 106.401 119.332 107.336 118.961 108.2C118.875 108.464 118.737 108.707 118.554 108.916C118.372 109.125 118.149 109.296 117.9 109.417C114.914 109.978 111.905 110.617 108.961 111.31L108.284 111.471V112.147C108.336 114.413 108.392 116.631 108.453 118.8C108.453 119.138 108.453 119.307 108.478 119.65L109.336 119.526C113.052 118.977 116.843 118.462 120.554 118.016C120.806 118.016 121.174 118.136 121.554 118.8C121.947 119.526 122.153 120.338 122.152 121.163C122.185 122.835 122.223 124.492 122.264 126.133C122.298 126.949 122.131 127.761 121.777 128.497C121.434 129.181 121.083 129.322 120.835 129.384C114.997 129.561 109.159 129.627 103.321 129.503C102.908 129.478 102.338 128.93 101.789 128.006C101.095 126.776 100.712 125.396 100.674 123.985C100.17 114.28 100.034 104.187 100.117 94.4611C100.147 92.3168 100.489 90.1882 101.132 88.1423C101.958 85.4985 102.619 84.6282 102.912 84.3683C108.449 80.1242 114.06 76.2471 120.48 73.4507C120.749 73.4218 121.009 73.6816 121.252 74.2219C121.664 75.2271 121.855 76.3085 121.814 77.3937C121.822 79.6072 121.825 81.7671 121.822 83.8734ZM92.0944 95.5046C92.3194 95.494 92.5439 95.5328 92.7523 95.6184C92.9606 95.7039 93.1476 95.834 93.3001 95.9995C94.452 97.0595 95.2778 98.7506 95.6907 100.891C96.1255 103.261 96.3369 105.667 96.3224 108.076C96.3224 112.036 95.6452 115.051 94.3281 116.973L94.0515 117.385L94.2951 117.798C95.6122 119.984 96.5453 122.999 96.9912 126.459C97.0701 127.179 96.9059 127.905 96.5247 128.522C96.4052 128.741 96.2244 128.92 96.0044 129.038C95.7844 129.156 95.5348 129.207 95.286 129.186C94.2992 129.128 93.329 129.062 92.3959 128.992C92.1339 128.982 91.8786 128.907 91.6525 128.775C91.4263 128.642 91.2364 128.456 91.0994 128.233C90.7319 127.696 90.4919 127.082 90.3975 126.439C90.1937 124.762 89.847 123.107 89.3612 121.489L89.0267 120.528L88.1721 121.118C87.7592 121.403 87.3463 121.679 86.9334 121.943L86.5907 122.166C86.5907 122.331 86.5907 122.409 86.5907 122.578C86.6279 123.914 86.6733 125.234 86.7228 126.575C86.7793 127.065 86.6448 127.558 86.3471 127.952C86.2388 128.102 86.0896 128.217 85.9174 128.283C85.7453 128.35 85.5576 128.365 85.3768 128.328C84.5511 128.229 83.7473 128.127 82.9656 128.022C82.5734 127.975 82.2104 127.791 81.9402 127.503C81.67 127.215 81.5098 126.841 81.4875 126.447C81.4214 121.172 81.4132 115.797 81.5866 110.6C81.6579 109.463 81.8972 108.343 82.2967 107.276C82.5761 106.32 82.9934 105.41 83.5354 104.574C85.7278 101.737 87.9285 99.1383 90.0796 96.7378C90.8682 95.9748 91.537 95.5582 92.1151 95.5046H92.0944ZM102.173 155.129C101.735 148.942 101.483 142.574 101.083 136.416C101.017 135.698 101.195 134.979 101.587 134.374C101.728 134.132 101.938 133.938 102.19 133.816C102.442 133.694 102.725 133.65 103.003 133.69C104.076 133.769 105.177 133.839 106.306 133.9C106.673 133.925 107.028 134.042 107.337 134.24C107.647 134.438 107.901 134.711 108.077 135.034C108.598 135.835 108.884 136.765 108.903 137.719C109.146 144.822 109.588 152.064 109.947 159.237C110.067 160.705 110.228 162.24 110.426 163.803C110.654 165.601 110.872 166.909 111.273 167.861C111.378 168.167 111.564 168.438 111.81 168.647C112.056 168.856 112.354 168.995 112.673 169.049C112.888 169.071 113.105 169.029 113.296 168.929C113.488 168.828 113.646 168.674 113.75 168.484C114.138 167.812 114.254 166.661 114.324 164.772C114.382 163.283 114.423 161.732 114.378 160.235C114.167 152.898 113.783 145.242 113.383 137.88C113.315 136.958 113.531 136.037 114.002 135.24C114.158 134.93 114.401 134.671 114.7 134.494C114.999 134.317 115.343 134.23 115.691 134.242C116.892 134.242 118.123 134.271 119.357 134.271C119.766 134.269 120.168 134.379 120.519 134.589C120.87 134.8 121.156 135.102 121.347 135.463C121.924 136.376 122.233 137.432 122.239 138.511C122.388 146.76 122.788 155.232 122.945 163.506C122.988 166.943 122.749 170.378 122.231 173.776C121.727 177.195 120.782 179.963 119.514 181.757C118.366 183.386 117.078 183.687 115.348 182.739C114.171 181.959 112.986 181.118 111.822 180.243C109.927 178.622 108.222 176.119 106.727 172.844C105.346 169.839 104.279 166.701 103.544 163.477C102.885 160.732 102.434 157.942 102.194 155.129H102.173ZM194.811 125.812C194.817 126.033 194.775 126.252 194.689 126.455C194.603 126.659 194.474 126.841 194.312 126.991C194.118 127.187 193.882 127.337 193.621 127.427C193.361 127.518 193.083 127.548 192.809 127.515C191.517 127.453 190.864 127.424 189.551 127.379C189.24 127.381 188.933 127.309 188.654 127.171C188.375 127.033 188.132 126.832 187.945 126.583C187.514 126.064 187.266 125.417 187.239 124.743C187.049 117.233 186.768 109.705 186.442 102.186C186.442 102.017 186.442 101.935 186.442 101.774L186.071 101.51C184.729 100.545 183.375 99.6126 182.041 98.7382C181.51 98.2892 181.1 97.715 180.848 97.0678C180.502 96.2987 180.304 95.4721 180.261 94.6302C180.195 92.8814 180.162 92.0111 180.096 90.2705C180.059 89.3301 180.253 88.9053 180.418 88.7197C180.44 88.6899 180.468 88.6658 180.501 88.6496C180.622 88.6845 180.732 88.7482 180.823 88.8352C186.513 94.2872 191.889 100.057 196.925 106.117C197.372 106.679 197.752 107.291 198.057 107.94C198.296 108.394 198.462 108.882 198.548 109.388C198.631 110.233 198.672 110.658 198.75 111.512C198.75 111.557 198.75 111.594 198.75 111.623C198.614 111.558 198.486 111.477 198.37 111.38C197.132 110.299 196.001 109.318 194.898 108.406L193.688 107.392C193.73 107.969 193.75 108.258 193.787 108.835C194.167 114.49 194.531 120.165 194.811 125.812Z" fill="#231F20"/>
<path d="M143.313 47.1237L144.233 48.3611C144.621 48.8807 145.001 49.4004 145.381 49.9243C145.682 50.3367 145.988 50.7492 146.285 51.1616C146.665 51.6951 147.041 52.2299 147.412 52.7661C147.706 53.1785 147.999 53.591 148.288 54.0323C148.665 54.5822 149.036 55.1322 149.403 55.6821L150.249 56.9525C150.621 57.5272 150.991 58.1032 151.36 58.6807C151.628 59.0931 151.892 59.5056 152.157 59.918C152.421 60.3305 152.652 60.7182 152.9 61.1183C164.095 63.0726 174.649 67.7136 183.652 74.6423C192.656 81.571 199.84 90.5801 204.588 100.895C207.049 96.1357 209.251 91.3443 211.195 86.5213C217.644 70.481 220.873 54.6139 220.278 41.8443C219.684 29.0747 215.464 19.9182 208.053 15.4389C192.718 6.12572 165.988 18.8128 142.697 46.3112C142.904 46.5793 143.106 46.8556 143.313 47.1237Z" fill="#231F20"/>
<path d="M129.109 198.857C117.913 196.905 107.359 192.265 98.3547 185.336C89.3508 178.407 82.1667 169.397 77.4206 159.08C74.9639 163.84 72.7467 168.641 70.8145 173.454C64.3652 189.495 61.1406 205.362 61.731 218.131C62.3215 230.901 66.5535 240.078 73.9648 244.574C89.2992 253.871 116.029 241.184 139.32 213.685C135.665 208.921 132.257 203.971 129.109 198.857Z" fill="#231F20"/>
<path d="M67.5898 170.365C69.8919 164.823 72.48 159.405 75.3438 154.131C71.4169 143.469 70.1542 132.012 71.6651 120.752C73.1761 109.493 77.4152 98.7717 84.0143 89.5199C83.5436 89.5446 83.0688 89.5611 82.594 89.59L81.3884 89.6601C80.6782 89.7055 79.9722 89.7509 79.2662 89.8045L78.0028 89.9035L75.9383 90.0891L74.6997 90.2046L72.4949 90.4479L71.442 90.5675C70.3727 90.6995 69.3033 90.8397 68.2422 90.98C51.1076 93.4217 35.7401 98.5609 24.9638 105.457C14.1876 112.353 8.3329 120.615 8.13472 129.276C7.74248 147.189 32.1067 163.968 67.5898 170.365Z" fill="#231F20"/>
<path d="M69.2951 86.6822C75.2686 85.9008 81.2785 85.4272 87.3009 85.2633C93.8539 77.3897 102.062 71.0538 111.342 66.7056C120.622 62.3573 130.746 60.1033 140.996 60.1036C143.213 60.1036 145.41 60.215 147.578 60.4171C144.687 55.9131 141.628 51.5988 138.424 47.5196C127.743 33.9086 115.6 23.1848 104.237 17.3197C92.8748 11.4546 82.8005 10.5184 75.1951 14.68C59.4684 23.3127 57.1026 52.7826 69.2951 86.6822Z" fill="#231F20"/>
<path d="M139.939 93.5248C139.853 91.413 139.745 89.8127 139.671 88.6455C139.555 86.8059 139.258 86.1707 139.076 85.882L138.841 85.5191L137.842 85.5562L137.611 85.8985C137.247 86.4265 137.049 87.3339 136.987 88.7568C136.934 89.9942 136.863 91.644 136.781 93.6609C136.682 97.5586 136.583 101.308 136.492 104.942C136.492 105.284 136.492 105.457 136.467 105.799L137.313 105.746C138.052 105.696 138.796 105.655 139.539 105.622L140.365 105.585C140.365 105.255 140.365 105.09 140.336 104.76C140.191 101.147 140.096 97.3813 139.939 93.5248Z" fill="#231F20"/>
<path d="M169.419 152.229C169.44 151.025 169.452 150.427 169.469 149.227C169.505 147.191 169.176 145.166 168.498 143.246L168.387 142.953L168.102 142.821C167.462 142.52 166.612 142.516 165.501 142.821L164.882 142.982C164.882 143.242 164.882 143.37 164.882 143.626C164.835 147.956 164.766 152.287 164.675 156.618C164.675 157.03 164.675 157.249 164.65 157.674L166.24 157.195L166.364 157.101C168.3 155.607 169.324 153.978 169.419 152.229Z" fill="#231F20"/>
<path d="M91.2274 143.848C91.1324 142.904 91.0044 141.951 90.8517 141.011C90.7597 140.133 90.5167 139.278 90.1332 138.482C90.0154 138.269 89.8517 138.084 89.654 137.942C89.4563 137.799 89.2293 137.702 88.9896 137.657C88.8241 137.629 88.6542 137.641 88.4944 137.693C88.3347 137.744 88.19 137.834 88.073 137.954C87.7592 138.309 87.594 138.948 87.5238 140.095C87.4784 140.887 87.4578 141.708 87.4743 142.57C87.5569 143.935 87.6436 145.321 87.7385 146.752C87.8335 147.647 87.9615 148.587 88.1225 149.553C88.2441 150.485 88.4841 151.399 88.8368 152.271C89.2084 153.096 89.7451 153.459 90.2241 153.508C90.3706 153.529 90.5199 153.517 90.6617 153.475L90.8806 153.409L91.0044 153.219C91.2893 152.807 91.4421 152.122 91.4916 151.108C91.5329 150.246 91.5412 149.338 91.5205 148.373C91.4214 146.872 91.3223 145.362 91.2274 143.848Z" fill="#231F20"/>
<path d="M86.4751 116.729L87.9161 116.115L88.011 116.037C89.2786 114.964 89.9681 113.743 89.997 112.531V112.506C89.997 111.842 89.997 111.165 89.9722 110.481C89.9905 109.115 89.7423 107.759 89.2414 106.488L89.0598 106.055H88.5519C88.0275 106.084 87.4495 106.381 86.6857 107.045L86.4173 107.276V107.614C86.4173 110.291 86.4173 112.976 86.471 115.608C86.4627 116.078 86.4669 116.284 86.4751 116.729Z" fill="#231F20"/>
<path d="M82.3091 107.297C81.9095 108.364 81.6702 109.484 81.599 110.621C81.4255 115.818 81.4338 121.192 81.4999 126.468C81.5221 126.862 81.6824 127.235 81.9526 127.523C82.2228 127.811 82.5857 127.995 82.978 128.043C83.757 128.148 84.5607 128.249 85.3892 128.348C85.57 128.386 85.7577 128.37 85.9298 128.304C86.102 128.237 86.2512 128.122 86.3595 127.973C86.6572 127.579 86.7917 127.086 86.7352 126.595C86.6857 125.255 86.6403 123.935 86.6031 122.599C86.6031 122.438 86.6031 122.36 86.6031 122.186L86.9458 121.964C87.3587 121.704 87.7716 121.427 88.1844 121.139L89.0391 120.549L89.3735 121.51C89.8593 123.127 90.206 124.783 90.4099 126.459C90.5042 127.103 90.7443 127.717 91.1118 128.253C91.2487 128.477 91.4387 128.663 91.6648 128.795C91.891 128.928 92.1463 129.002 92.4082 129.012C93.3537 129.083 94.324 129.148 95.2984 129.206C95.5471 129.228 95.7968 129.177 96.0168 129.059C96.2368 128.941 96.4176 128.761 96.5371 128.542C96.9183 127.926 97.0825 127.2 97.0036 126.48C96.5577 123.003 95.6246 119.988 94.3075 117.818L94.0639 117.406L94.3405 116.993C95.6576 115.071 96.3306 112.044 96.3347 108.097C96.3493 105.687 96.1378 103.282 95.703 100.912C95.2901 98.7712 94.4644 97.0802 93.3124 96.0202C93.1599 95.8546 92.9729 95.7245 92.7646 95.639C92.5563 95.5535 92.3318 95.5146 92.1068 95.5252C91.537 95.5788 90.8682 95.9954 90.1043 96.7626C87.9532 99.1672 85.7526 101.766 83.5601 104.599C83.0142 105.433 82.5927 106.342 82.3091 107.297ZM86.4049 107.297L86.6733 107.066C87.4371 106.402 88.0152 106.105 88.5395 106.076H89.0474L89.2455 106.509C89.7464 107.78 89.9947 109.136 89.9763 110.501C89.9763 111.186 89.9763 111.863 90.0011 112.527V112.551C89.9722 113.764 89.2827 114.985 88.0152 116.057L87.9202 116.136L86.4792 116.75C86.4792 116.305 86.4792 116.086 86.4792 115.645C86.4421 113.022 86.4214 110.328 86.4256 107.651L86.4049 107.297Z" fill="#231F20"/>
<path d="M120.517 73.4589C114.089 76.2553 108.486 80.1324 102.949 84.3766C102.656 84.6364 101.987 85.5067 101.17 88.1505C100.526 90.1965 100.184 92.325 100.154 94.4693C100.071 104.199 100.208 114.288 100.711 123.993C100.749 125.404 101.132 126.785 101.826 128.014C102.375 128.938 102.933 129.487 103.358 129.511C109.196 129.635 115.034 129.569 120.872 129.392C121.12 129.346 121.471 129.19 121.814 128.505C122.168 127.769 122.335 126.958 122.301 126.142C122.26 124.492 122.222 122.835 122.189 121.172C122.19 120.346 121.984 119.534 121.591 118.808C121.211 118.144 120.843 118.037 120.592 118.025C116.876 118.47 113.098 118.986 109.374 119.534L108.515 119.658C108.515 119.316 108.515 119.146 108.49 118.808C108.429 116.636 108.373 114.418 108.321 112.155V111.479L108.998 111.318C111.942 110.625 114.952 109.986 117.937 109.425C118.186 109.304 118.409 109.134 118.591 108.925C118.774 108.715 118.912 108.472 118.998 108.208C119.369 107.344 119.55 106.41 119.526 105.469C119.526 104.562 119.506 103.663 119.497 102.756C119.515 101.866 119.317 100.986 118.919 100.19C118.548 99.5095 118.213 99.493 118.048 99.4972C115.084 100.322 112.099 101.295 109.184 102.384L108.172 102.756C108.172 102.343 108.172 102.133 108.172 101.72C108.143 99.2786 108.123 96.7708 108.114 94.1806V93.6444L108.626 93.4011C112.32 91.6421 116.129 90.1346 120.026 88.8888C120.484 88.6579 120.885 88.1052 121.215 87.239C121.62 86.162 121.823 85.0197 121.814 83.8693C121.814 81.763 121.823 79.6059 121.843 77.3979C121.884 76.3127 121.693 75.2312 121.281 74.2261C121.046 73.6899 120.786 73.43 120.517 73.4589Z" fill="#231F20"/>
<path d="M139.729 69.256C138.82 69.256 137.887 69.2849 136.967 69.3467C134.147 69.4828 131.785 71.409 130.113 74.919C127.883 79.6169 127.223 85.1314 126.971 90.3324C126.739 101.815 126.64 113.38 126.471 124.781C126.428 125.892 126.725 126.989 127.322 127.928C127.521 128.296 127.821 128.6 128.186 128.806C128.551 129.011 128.967 129.108 129.386 129.087L133.387 128.909C134.213 128.868 134.844 128.431 135.36 127.536C135.941 126.507 136.237 125.343 136.219 124.162C136.219 121.823 136.256 119.439 136.277 117.039C136.277 116.721 136.277 116.56 136.277 116.247L137.062 116.197C138.019 116.14 138.986 116.086 139.952 116.041L140.749 115.999C140.749 116.321 140.749 116.482 140.773 116.824C140.839 119.217 140.926 121.601 140.972 123.923C140.967 125.088 141.29 126.231 141.905 127.222C142.446 128.047 143.09 128.46 143.928 128.406C145.257 128.373 146.657 128.27 148.019 128.2C148.47 128.181 148.908 128.042 149.285 127.796C149.663 127.55 149.968 127.206 150.166 126.802C150.761 125.825 151.049 124.693 150.992 123.551C150.546 112.176 150.224 100.656 149.861 89.2064C149.568 84.1745 148.866 78.8084 146.612 74.3086C144.898 70.9347 142.516 69.2271 139.729 69.256ZM139.539 105.63C138.796 105.663 138.052 105.705 137.313 105.754L136.467 105.808C136.467 105.465 136.467 105.292 136.492 104.95C136.583 101.316 136.682 97.5669 136.781 93.6692C136.863 91.6399 136.934 89.9942 136.987 88.7651C137.049 87.3421 137.247 86.4347 137.611 85.9068L137.842 85.5644L138.841 85.5273L139.076 85.8903C139.275 86.1955 139.555 86.8142 139.671 88.6537C139.745 89.8086 139.853 91.4213 139.939 93.5331C140.096 97.3895 140.191 101.155 140.323 104.777C140.323 105.107 140.323 105.272 140.352 105.601L139.539 105.63Z" fill="#231F20"/>
<path d="M156.062 86.3564C155.44 89.9642 155.115 93.6171 155.092 97.2781C155.092 100.433 155.121 103.572 155.171 106.567C155.238 109.925 155.622 113.27 156.318 116.556C156.975 119.732 158.102 122.384 159.667 124.434C161.141 126.356 162.949 127.321 165.187 127.445C167.251 127.379 168.292 127.35 170.348 127.305C171.74 127.204 173.092 126.792 174.304 126.1C175.37 125.484 176.238 124.577 176.806 123.486C177.404 122.351 177.739 120.788 177.83 118.713C177.809 117.406 177.801 116.758 177.776 115.455C177.553 113.253 176.583 112.819 176.211 112.679C174.242 112.172 172.247 111.714 170.286 111.318C170.149 111.305 170.01 111.32 169.879 111.363C169.747 111.405 169.626 111.474 169.522 111.566C169.109 111.924 168.899 112.659 168.882 113.628C168.853 115.142 168.841 115.9 168.498 116.346L168.445 116.408C168.283 116.596 168.077 116.741 167.845 116.829C167.613 116.918 167.363 116.947 167.116 116.914C166.87 116.881 166.636 116.788 166.436 116.642C166.235 116.496 166.074 116.302 165.967 116.078C165.488 115.199 165.29 113.714 165.142 112.238C164.993 110.761 164.882 109.161 164.811 107.614C164.782 104.513 164.762 102.966 164.725 99.8931C164.76 98.2433 164.835 96.6333 164.948 95.0633C165.08 93.1784 165.249 91.8667 165.687 91.1573C165.791 90.981 165.942 90.8374 166.124 90.7426C166.306 90.6479 166.51 90.6058 166.715 90.6211C167.268 90.6665 167.792 91.0707 168.201 91.7595L168.23 91.809C168.498 92.3369 168.544 93.1536 168.618 94.8158C168.697 96.7007 169.349 98.0866 170.414 98.6186C172.413 99.3569 174.411 100.174 176.36 101.048C176.744 101.172 176.88 101.081 176.925 101.048C177.049 100.965 177.338 100.636 177.408 99.4394C177.367 97.9793 177.342 97.2493 177.301 95.7933C177.15 93.5601 176.716 91.3551 176.009 89.2312C175.339 87.3154 174.424 85.4938 173.288 83.8115C172.18 82.1403 170.815 80.6549 169.242 79.4106C167.627 78.3011 165.939 77.2411 164.312 76.3007C162.289 75.3562 160.637 75.8058 159.254 77.6824C157.763 79.6952 156.69 82.6195 156.062 86.3564Z" fill="#231F20"/>
<path d="M193.787 108.827C193.75 108.249 193.73 107.961 193.688 107.383L194.898 108.398C196.001 109.318 197.136 110.291 198.37 111.372C198.486 111.468 198.614 111.55 198.75 111.615C198.75 111.586 198.75 111.549 198.75 111.504C198.672 110.65 198.631 110.225 198.548 109.38C198.462 108.874 198.296 108.385 198.057 107.932C197.752 107.282 197.372 106.671 196.925 106.109C191.889 100.049 186.513 94.279 180.823 88.827C180.732 88.7399 180.622 88.6762 180.501 88.6413C180.468 88.6576 180.44 88.6817 180.418 88.7115C180.253 88.8971 180.059 89.3219 180.096 90.2623C180.162 92.0029 180.195 92.8731 180.261 94.6219C180.304 95.4638 180.502 96.2905 180.848 97.0595C181.1 97.7068 181.51 98.2809 182.041 98.73C183.375 99.6044 184.729 100.537 186.071 101.502L186.442 101.766C186.442 101.935 186.442 102.017 186.442 102.178C186.768 109.697 187.049 117.224 187.239 124.735C187.266 125.409 187.514 126.056 187.945 126.575C188.132 126.823 188.375 127.025 188.654 127.163C188.933 127.301 189.24 127.372 189.551 127.371C190.864 127.416 191.517 127.445 192.809 127.507C193.083 127.54 193.361 127.51 193.621 127.419C193.882 127.328 194.118 127.179 194.312 126.983C194.474 126.833 194.603 126.65 194.689 126.447C194.775 126.244 194.817 126.024 194.811 125.803C194.531 120.165 194.167 114.49 193.787 108.827Z" fill="#231F20"/>
<path d="M98.0565 147.713C97.8644 145.354 97.4496 143.019 96.8178 140.738C96.288 138.63 95.3449 136.648 94.0432 134.906C93.0664 133.559 91.6353 132.61 90.0135 132.234C89.0584 132.085 88.128 131.931 87.2224 131.772C86.085 131.587 84.9204 131.851 83.973 132.506C83.1655 133.078 82.5691 133.9 82.2761 134.844C81.9404 135.883 81.7812 136.971 81.8054 138.062C81.8302 139.118 81.8797 140.239 81.9416 141.332C82.0669 142.818 82.3436 144.287 82.7674 145.717C83.3766 147.791 84.1797 149.803 85.1663 151.726C86.3482 154.144 87.7923 156.425 89.4726 158.528L89.6997 158.783C89.6997 158.87 89.7327 158.911 89.7534 158.998C90.1291 160.582 90.5172 162.231 90.9053 163.947C91.2017 165.161 91.6324 166.338 92.1894 167.457C92.6666 168.552 93.3428 169.549 94.1836 170.398C95.1291 171.26 96.0829 172.122 97.0201 172.873C97.1409 172.975 97.2815 173.051 97.433 173.096C97.4659 173.039 97.4935 172.98 97.5156 172.918C97.7344 172.328 97.7055 171.417 97.466 170.311C97.0532 168.365 96.6403 166.467 96.2274 164.661C96.182 164.463 96.1572 164.364 96.1159 164.166L96.5288 163.914C97.2761 163.44 97.8335 162.219 98.1391 160.388C98.4814 158.25 98.5908 156.082 98.4652 153.921C98.3414 151.833 98.2051 149.73 98.0565 147.713ZM91.4916 151.136C91.4421 152.151 91.2893 152.823 91.0044 153.248L90.8806 153.438L90.6617 153.504C90.5199 153.546 90.3706 153.557 90.2241 153.537C89.7451 153.471 89.2084 153.091 88.8368 152.3C88.4841 151.428 88.2441 150.514 88.1225 149.581C87.9615 148.616 87.8335 147.676 87.7385 146.781C87.6436 145.35 87.5569 143.964 87.4743 142.599C87.4743 141.737 87.4743 140.916 87.5238 140.124C87.594 138.977 87.7592 138.338 88.073 137.983C88.19 137.863 88.3347 137.773 88.4944 137.721C88.6542 137.67 88.8241 137.658 88.9896 137.686C89.2293 137.731 89.4563 137.828 89.654 137.971C89.8517 138.113 90.0154 138.298 90.1332 138.511C90.5167 139.306 90.7597 140.162 90.8517 141.04C91.0044 141.98 91.1324 142.933 91.2274 143.877C91.3223 145.395 91.4214 146.901 91.5205 148.414C91.537 149.363 91.537 150.27 91.4916 151.136Z" fill="#231F20"/>
<path d="M106.727 172.836C108.222 176.115 109.927 178.61 111.822 180.235C112.986 181.109 114.171 181.951 115.348 182.73C117.078 183.679 118.366 183.378 119.514 181.749C120.782 179.955 121.727 177.187 122.231 173.768C122.749 170.37 122.988 166.935 122.945 163.498C122.788 155.224 122.388 146.752 122.239 138.503C122.231 137.426 121.922 136.374 121.347 135.463C121.16 135.104 120.879 134.802 120.534 134.59C120.188 134.378 119.791 134.263 119.386 134.259C118.147 134.259 116.909 134.259 115.72 134.23C115.372 134.217 115.028 134.305 114.729 134.482C114.429 134.659 114.187 134.918 114.031 135.228C113.56 136.024 113.344 136.945 113.412 137.868C113.824 145.23 114.196 152.885 114.407 160.223C114.452 161.737 114.407 163.287 114.353 164.76C114.283 166.653 114.167 167.804 113.779 168.472C113.675 168.661 113.517 168.816 113.325 168.916C113.134 169.017 112.917 169.059 112.701 169.037C112.383 168.982 112.085 168.843 111.839 168.634C111.593 168.425 111.407 168.154 111.302 167.849C110.889 166.896 110.682 165.589 110.455 163.791C110.257 162.227 110.096 160.693 109.976 159.225C109.617 152.052 109.175 144.809 108.932 137.707C108.913 136.752 108.627 135.822 108.106 135.022C107.93 134.699 107.676 134.426 107.366 134.228C107.056 134.029 106.702 133.912 106.335 133.888C105.217 133.827 104.116 133.757 103.032 133.677C102.754 133.638 102.471 133.682 102.219 133.804C101.967 133.926 101.757 134.12 101.616 134.362C101.223 134.967 101.046 135.686 101.112 136.404C101.525 142.562 101.764 148.942 102.202 155.117C102.442 157.926 102.894 160.714 103.552 163.456C104.284 166.684 105.348 169.827 106.727 172.836Z" fill="#231F20"/>
<path d="M149.877 175.595C149.518 174.815 149.163 174.737 148.998 174.733C145.08 175.411 141.102 175.687 137.128 175.558L136.364 175.529C136.364 175.224 136.364 175.075 136.364 174.77C136.364 171.85 136.364 169.016 136.364 166.253C136.364 165.894 136.364 165.717 136.364 165.362H137.26C140.376 165.408 143.492 165.247 146.587 164.879C147 164.76 147.346 164.343 147.66 163.642C148.063 162.741 148.271 161.766 148.271 160.78C148.271 159.678 148.271 159.13 148.3 158.024C148.336 157.138 148.147 156.257 147.751 155.463C147.384 154.758 147.008 154.638 146.748 154.613C143.531 154.927 140.278 155.1 137.09 155.129H136.302C136.302 154.816 136.302 154.659 136.302 154.341C136.277 151.751 136.252 149.198 136.227 146.682C136.227 146.34 136.227 146.166 136.227 145.824H137.082C141.079 145.729 145.162 145.473 149.2 145.077C149.398 145.028 149.861 144.867 150.307 143.984C150.701 143.199 150.902 142.331 150.893 141.452C150.893 139.753 150.893 138.062 150.893 136.379C150.916 135.554 150.721 134.737 150.327 134.011C149.915 133.314 149.531 133.186 149.25 133.162C142.623 133.545 136 133.904 129.365 134.094C128.874 134.131 128.259 134.832 127.664 136.057C126.901 137.758 126.547 139.614 126.632 141.477C126.805 153.079 127.268 164.958 127.458 176.7C127.458 177.686 127.478 178.181 127.491 179.175C127.537 181.668 127.941 184.142 128.688 186.521C129.646 189.408 130.34 189.759 130.472 189.821C137.049 191 141.706 191.058 148.325 190.089C148.713 189.907 149.114 189.326 149.46 188.439C149.893 187.304 150.132 186.105 150.166 184.892C150.241 182.728 150.305 180.612 150.36 178.544C150.427 177.537 150.262 176.528 149.877 175.595Z" fill="#231F20"/>
<path d="M169.601 179.286C169.782 179.592 170.014 179.967 171.017 179.262C172.297 178.367 173.602 177.41 174.89 176.428C175.937 175.551 176.744 174.423 177.235 173.149C177.809 171.942 178.127 170.629 178.168 169.293C177.97 164.995 177.124 161.815 175.538 159.282L175.27 158.87L175.55 158.42C177.388 155.471 178.379 151.937 178.503 147.895C178.599 145.534 178.395 143.171 177.896 140.862C177.359 138.646 176.303 136.59 174.816 134.861C173.259 132.955 171.417 131.953 169.332 131.908C165.616 132.139 161.934 132.382 158.362 132.613C157.821 132.675 157.123 133.417 156.492 134.704C155.661 136.445 155.238 138.352 155.253 140.281C155.038 154.213 155.01 168.509 154.547 182.582C154.454 183.946 154.701 185.312 155.266 186.558C155.811 187.647 156.368 187.519 156.855 187.313C158.123 186.777 159.427 186.17 160.732 185.51C161.591 185.073 162.355 184.092 162.995 182.598C163.626 181.19 163.97 179.67 164.006 178.127C164.126 175.24 164.225 172.44 164.316 169.738C164.316 169.602 164.316 169.532 164.316 169.396C165.616 168.039 166.261 167.358 167.545 166.005C167.673 166.554 167.739 166.83 167.871 167.375C168.284 169.091 168.626 171.998 168.808 176.201C168.813 177.279 169.085 178.339 169.601 179.286ZM166.356 157.088L166.232 157.183L164.642 157.661C164.642 157.249 164.642 157.026 164.667 156.606C164.758 152.275 164.826 147.944 164.873 143.613C164.873 143.358 164.873 143.23 164.873 142.97L165.493 142.809C166.603 142.516 167.454 142.52 168.094 142.809L168.379 142.941L168.49 143.234C169.168 145.154 169.497 147.179 169.46 149.214C169.46 150.415 169.432 151.013 169.411 152.217C169.324 153.978 168.3 155.607 166.356 157.088Z" fill="#231F20"/>
<path d="M198.969 139.34C200.146 136.362 200.6 134.614 200.526 133.389C200.497 132.906 200.48 132.663 200.451 132.184C200.433 132.012 200.378 131.845 200.29 131.695C200.202 131.546 200.082 131.417 199.939 131.318C199.516 130.976 198.98 130.803 198.437 130.831C197.47 130.831 196.481 130.831 195.468 130.831C195.181 130.815 194.894 130.867 194.631 130.982C194.367 131.097 194.135 131.273 193.953 131.495C193.579 131.923 193.388 132.48 193.42 133.046V133.1C193.42 133.45 193.42 133.801 193.42 134.152C193.466 136.936 193.117 139.714 192.384 142.401C192.347 142.553 192.33 142.628 192.293 142.776L191.009 143.259C190.91 142.957 190.86 142.805 190.757 142.504C189.891 139.893 189.431 137.165 189.394 134.416C189.374 133.974 189.361 133.756 189.341 133.314C189.355 132.704 189.13 132.111 188.713 131.664C188.528 131.452 188.299 131.283 188.042 131.169C187.784 131.055 187.504 130.999 187.223 131.005H187.086C185.967 131.042 184.824 131.087 183.664 131.132C183.298 131.132 182.938 131.223 182.617 131.397C182.296 131.57 182.022 131.821 181.822 132.126C181.334 132.811 181.074 133.632 181.079 134.473C181.079 135.381 181.079 135.834 181.079 136.746C181.079 139.336 181.876 142.541 183.354 145.968C185.204 150.262 186.43 151.231 187.004 151.429L187.512 151.607C187.512 151.829 187.512 151.941 187.512 152.163C187.483 155.612 187.462 159.241 187.342 162.99C187.309 163.964 187.458 164.64 187.755 164.822C187.999 164.966 188.581 164.648 189.262 163.997C190.402 162.908 191.574 161.77 192.739 160.619C193.625 159.736 194.341 158.699 194.853 157.558C195.293 156.684 195.536 155.724 195.563 154.745C195.522 151.965 195.526 149.256 195.48 146.665C195.48 146.562 195.48 146.509 195.48 146.406L195.629 146.199C196.546 144.95 197.648 142.685 198.969 139.34Z" fill="#231F20"/>
<path d="M208.693 165.314L208.099 165.409L206.228 165.636L204.891 165.788C204.255 165.859 203.611 165.92 202.971 165.982L201.666 166.11L199.626 166.275L198.421 166.37C197.636 166.428 196.852 166.473 196.067 166.518L195.151 166.572C194.05 166.63 192.949 166.678 191.848 166.716H191.563L190.712 166.737C184.161 174.608 175.957 180.942 166.681 185.29C157.405 189.638 147.284 191.894 137.038 191.897C134.816 191.897 132.624 191.785 130.456 191.583C133.346 196.087 136.406 200.402 139.606 204.481C150.291 218.092 162.43 228.816 173.797 234.681C185.163 240.546 195.229 241.482 202.835 237.32C218.524 228.684 220.898 199.23 208.693 165.314Z" fill="#ED203D"/>
<path d="M210.399 81.6312L209.986 82.5634C209.788 83.0377 209.573 83.5079 209.383 83.9822C209.127 84.572 208.867 85.1577 208.607 85.7475C208.396 86.2177 208.194 86.6879 207.971 87.1581C207.702 87.7479 207.426 88.3378 207.145 88.9276C206.926 89.3978 206.707 89.8638 206.48 90.3299C206.195 90.9238 205.902 91.5178 205.609 92.1076C205.382 92.5695 205.155 93.0274 204.924 93.4852C204.618 94.0915 204.304 94.6937 203.991 95.3C203.759 95.7413 203.532 96.1868 203.297 96.6281L202.628 97.8654C206.553 108.527 207.815 119.985 206.304 131.244C204.793 142.503 200.555 153.224 193.958 162.476C199.325 162.225 204.598 161.738 209.746 161.004C226.877 158.562 242.244 153.423 253.02 146.527C263.797 139.631 269.635 131.386 269.825 122.724C270.246 104.807 245.882 88.0284 210.399 81.6312Z" fill="#ED203D"/>
<path d="M255.622 94.2317C244.474 86.6467 229.424 80.9589 211.951 77.7335C218.078 61.7757 221.006 46.5932 220.411 33.6875C219.75 19.4496 214.837 9.15475 206.195 3.91246C197.323 -1.44945 185.58 -0.917386 172.236 5.50041C160.093 11.3408 147.636 21.5243 136.092 35.0239C125.32 21.7387 113.619 11.6212 102.132 5.68601C89.4611 -0.880265 78.0779 -1.77529 69.2133 3.08342C60.1299 8.06587 54.717 18.501 53.6105 33.2545C52.603 46.6799 55.2083 62.5387 61.1373 79.2844C44.2339 81.9612 29.6096 87.0426 18.7177 93.9966C6.70285 101.685 0.232973 111.085 0.00588749 121.181C-0.221198 131.546 6.12481 141.429 18.3627 149.765C29.5105 157.35 44.5601 163.037 62.0374 166.263C55.9061 182.221 52.9788 197.403 53.5733 210.309C54.2339 224.547 59.1472 234.842 67.7889 240.084C71.8227 242.53 76.4594 243.751 81.5544 243.751C87.6733 243.751 94.4735 241.998 101.748 238.496C113.895 232.668 126.348 222.484 137.909 208.985C148.677 222.27 160.378 232.387 171.864 238.323C179.168 242.101 186.043 243.998 192.257 243.998C196.631 244.052 200.947 242.99 204.796 240.913C213.879 235.93 219.288 225.495 220.395 210.742C221.406 197.316 218.797 181.458 212.868 164.712C229.771 162.035 244.395 156.97 255.287 150.004C267.302 142.312 273.772 132.912 273.995 122.815C274.206 112.45 267.859 102.567 255.622 94.2317ZM269.85 122.724C269.66 131.386 263.846 139.614 253.045 146.527C242.244 153.44 226.902 158.562 209.771 161.004C204.622 161.738 199.342 162.241 193.982 162.476C200.58 153.224 204.817 142.503 206.328 131.244C207.839 119.985 206.578 108.527 202.653 97.8654L203.322 96.6281C203.557 96.1868 203.784 95.7413 204.015 95.3C204.329 94.6937 204.643 94.0915 204.949 93.4852C205.18 93.0274 205.407 92.5695 205.634 92.1076C205.927 91.5178 206.22 90.9238 206.505 90.3299C206.732 89.8638 206.951 89.3978 207.17 88.9276C207.446 88.3378 207.723 87.7479 207.996 87.1581C208.21 86.6879 208.408 86.2177 208.631 85.7475C208.892 85.1577 209.152 84.572 209.408 83.9822C209.614 83.5079 209.821 83.0377 210.01 82.5634L210.423 81.6312C245.882 88.0284 270.246 104.807 269.85 122.724ZM173.755 234.66C162.389 228.787 150.25 218.063 139.564 204.46C136.365 200.381 133.309 196.067 130.415 191.563C132.583 191.765 134.775 191.876 136.996 191.876C147.243 191.873 157.363 189.618 166.639 185.269C175.915 180.921 184.12 174.587 190.671 166.716L191.522 166.696H191.806C192.908 166.66 194.009 166.612 195.11 166.551L196.026 166.498C196.811 166.452 197.595 166.407 198.38 166.349L199.585 166.255L201.625 166.09L202.93 165.962C203.57 165.9 204.214 165.838 204.849 165.768L206.187 165.615L208.099 165.409L208.71 165.331C220.898 199.23 218.524 228.684 202.793 237.3C195.188 241.461 185.147 240.55 173.755 234.66ZM69.9359 236.574C62.504 232.078 58.2967 222.934 57.7021 210.131C57.1076 197.329 60.3405 181.495 66.7856 165.454C68.722 160.641 70.9392 155.84 73.3917 151.08C78.1405 161.401 85.329 170.413 94.3383 177.342C103.348 184.272 113.908 188.91 125.109 190.857C128.254 195.971 131.659 200.92 135.312 205.685C112 233.184 85.2703 245.871 69.9359 236.574ZM4.13472 121.276C4.32877 112.615 10.138 104.366 20.939 97.4736C31.7401 90.5815 47.0745 85.4341 64.2216 82.9923C65.2827 82.8439 66.352 82.7036 67.4214 82.5799L68.4743 82.4603L70.679 82.2169L71.9177 82.1014L73.9821 81.9158L75.2455 81.8168C75.9516 81.7632 76.6576 81.7179 77.3677 81.6725L78.5734 81.6024C79.0482 81.5735 79.523 81.557 79.9937 81.5322C73.3945 90.7841 69.1555 101.505 67.6445 112.765C66.1335 124.024 67.3963 135.482 71.3231 146.143C68.4668 151.414 65.8855 156.828 63.5898 162.365C28.1067 155.968 3.74248 139.189 4.13472 121.276ZM100.237 9.33623C111.6 15.2096 123.743 25.9334 134.424 39.5361C137.628 43.6153 140.683 47.9296 143.578 52.4336C141.41 52.2315 139.213 52.1201 136.996 52.1201C126.75 52.1228 116.629 54.3783 107.353 58.7264C98.0768 63.0746 89.8723 69.4089 83.3215 77.2798C77.2992 77.4437 71.2893 77.9173 65.3157 78.6987C53.1026 44.7826 55.4684 15.3127 71.1951 6.69652C78.8005 2.53486 88.8418 3.44638 100.237 9.33623ZM204.053 7.43894C211.464 11.9306 215.696 21.0747 216.286 33.8773C216.877 46.6799 213.648 62.514 207.203 78.5543C205.276 83.369 203.074 88.1604 200.597 92.9284C195.849 82.6098 188.664 73.5975 179.659 66.6665C170.654 59.7355 160.098 55.0933 148.9 53.1389C148.652 52.7264 148.408 52.314 148.157 51.9386C147.905 51.5633 147.628 51.1137 147.36 50.7013C146.994 50.1238 146.623 49.5478 146.249 48.9731L145.403 47.7027C145.036 47.1528 144.665 46.6029 144.288 46.0529C143.999 45.6405 143.706 45.228 143.412 44.7867C143.041 44.2505 142.665 43.7157 142.285 43.1822C141.988 42.7698 141.682 42.3573 141.381 41.9449C141.001 41.4211 140.621 40.9014 140.233 40.3817L139.313 39.1443C139.106 38.8762 138.9 38.5999 138.697 38.3194C161.988 10.8128 188.718 -1.87428 204.053 7.43894ZM191.493 138.682C191.538 141.272 191.534 143.982 191.575 146.762C191.548 147.74 191.306 148.701 190.865 149.575C190.353 150.715 189.637 151.753 188.751 152.635C187.587 153.786 186.414 154.924 185.275 156.013C184.593 156.665 184.011 156.983 183.768 156.838C183.454 156.653 183.305 155.98 183.355 155.007C183.475 151.258 183.495 147.628 183.524 144.18C183.524 143.957 183.524 143.846 183.524 143.623L183.016 143.446C182.442 143.248 181.216 142.279 179.366 137.985C177.888 134.557 177.095 131.353 177.091 128.762C177.091 127.851 177.091 127.397 177.091 126.49C177.086 125.649 177.346 124.828 177.835 124.143C178.035 123.838 178.308 123.587 178.629 123.413C178.951 123.24 179.311 123.149 179.676 123.149C180.836 123.104 181.98 123.058 183.099 123.021H183.235C183.517 123.015 183.796 123.071 184.054 123.185C184.311 123.299 184.541 123.468 184.726 123.681C185.142 124.128 185.368 124.72 185.353 125.331C185.374 125.772 185.386 125.991 185.407 126.432C185.444 129.182 185.903 131.91 186.769 134.52C186.873 134.821 186.922 134.974 187.021 135.275L188.305 134.792C188.342 134.644 188.359 134.57 188.396 134.417C189.129 131.73 189.478 128.953 189.432 126.168C189.432 125.817 189.432 125.467 189.432 125.116V125.063C189.4 124.496 189.592 123.94 189.965 123.512C190.147 123.29 190.38 123.114 190.643 122.998C190.906 122.883 191.193 122.831 191.48 122.848C192.49 122.848 193.48 122.848 194.449 122.848C194.993 122.819 195.528 122.992 195.952 123.335C196.094 123.434 196.214 123.562 196.302 123.712C196.391 123.861 196.446 124.028 196.464 124.201C196.493 124.679 196.509 124.922 196.538 125.405C196.612 126.642 196.158 128.379 194.982 131.357C193.648 134.685 192.546 136.95 191.637 138.187L191.489 138.393C191.489 138.513 191.493 138.566 191.493 138.67V138.682ZM163.883 159.375C163.751 158.826 163.685 158.55 163.557 158.005C162.273 159.358 161.629 160.039 160.328 161.396C160.328 161.532 160.328 161.602 160.328 161.738C160.237 164.44 160.138 167.224 160.019 170.127C159.982 171.67 159.639 173.19 159.007 174.598C158.367 176.092 157.603 177.073 156.744 177.51C155.44 178.17 154.135 178.777 152.868 179.313C152.38 179.519 151.823 179.647 151.278 178.558C150.713 177.312 150.466 175.946 150.559 174.582C151.022 160.509 151.051 146.213 151.266 132.281C151.25 130.352 151.674 128.445 152.504 126.704C153.157 125.417 153.834 124.675 154.375 124.613C157.946 124.382 161.645 124.139 165.345 123.908C167.43 123.953 169.271 124.955 170.828 126.861C172.316 128.59 173.372 130.646 173.908 132.862C174.407 135.171 174.611 137.534 174.515 139.895C174.391 143.937 173.4 147.471 171.563 150.42L171.282 150.87L171.55 151.282C173.136 153.815 173.982 156.995 174.181 161.293C174.14 162.629 173.822 163.942 173.247 165.149C172.757 166.423 171.95 167.551 170.902 168.428C169.614 169.41 168.309 170.367 167.029 171.262C166.026 171.967 165.791 171.592 165.613 171.286C165.1 170.335 164.832 169.27 164.833 168.189C164.639 163.986 164.292 161.078 163.883 159.362V159.375ZM146.365 170.523C146.312 172.591 146.248 174.707 146.171 176.871C146.136 178.085 145.897 179.284 145.465 180.418C145.118 181.305 144.717 181.887 144.329 182.068C137.723 183.025 133.053 182.98 126.476 181.8C126.348 181.755 125.65 181.387 124.692 178.5C123.945 176.121 123.541 173.648 123.495 171.154C123.495 170.165 123.495 169.67 123.462 168.68C123.264 156.937 122.801 145.058 122.636 133.456C122.554 131.601 122.906 129.752 123.664 128.057C124.259 126.82 124.874 126.131 125.365 126.094C132 125.904 138.623 125.545 145.25 125.162C145.531 125.186 145.931 125.314 146.327 126.011C146.721 126.737 146.916 127.554 146.893 128.379C146.893 130.062 146.893 131.753 146.893 133.452C146.902 134.331 146.701 135.199 146.307 135.984C145.861 136.867 145.398 137.028 145.2 137.077C141.162 137.49 137.079 137.729 133.082 137.824H132.227C132.227 138.166 132.227 138.34 132.227 138.682C132.252 141.201 132.277 143.754 132.302 146.341C132.302 146.659 132.302 146.816 132.302 147.129H133.09C136.278 147.1 139.531 146.927 142.748 146.613C143.008 146.613 143.384 146.758 143.751 147.463C144.147 148.257 144.336 149.138 144.3 150.024C144.3 151.126 144.3 151.674 144.271 152.78C144.271 153.766 144.063 154.741 143.66 155.642C143.346 156.335 142.983 156.752 142.587 156.879C139.492 157.247 136.376 157.408 133.26 157.362H132.364C132.364 157.717 132.364 157.894 132.364 158.253C132.364 161.016 132.364 163.85 132.364 166.77C132.364 167.075 132.364 167.224 132.364 167.529L133.128 167.558C137.102 167.687 141.08 167.411 144.998 166.733C145.163 166.733 145.518 166.815 145.877 167.595C146.26 168.521 146.427 169.523 146.365 170.523ZM94.1349 152.375C93.8294 154.207 93.272 155.428 92.5247 155.902L92.1118 156.154C92.1531 156.351 92.1779 156.45 92.2233 156.648C92.6362 158.455 93.0243 160.361 93.4619 162.299C93.7014 163.404 93.7303 164.316 93.5115 164.906C93.4894 164.967 93.4618 165.027 93.4289 165.083C93.2773 165.038 93.1367 164.962 93.016 164.86C92.0788 164.122 91.125 163.26 90.1795 162.386C89.3387 161.537 88.6625 160.54 88.1853 159.445C87.6283 158.326 87.1976 157.149 86.9012 155.935C86.5131 154.211 86.125 152.561 85.7493 150.985C85.7286 150.899 85.7162 150.858 85.6956 150.771L85.4685 150.515C83.7838 148.413 82.3355 146.132 81.1498 143.714C80.1632 141.79 79.3601 139.778 78.7509 137.704C78.3271 136.275 78.0504 134.806 77.9251 133.32C77.8632 132.227 77.8137 131.105 77.7889 130.049C77.7647 128.958 77.9238 127.871 78.2596 126.832C78.5526 125.887 79.149 125.066 79.9565 124.494C80.9038 123.838 82.0685 123.575 83.2059 123.759C84.1143 123.919 85.0446 124.073 85.997 124.221C87.6188 124.598 89.0499 125.547 90.0267 126.894C91.3284 128.636 92.2715 130.618 92.8013 132.726C93.4331 135.007 93.8479 137.342 94.04 139.701C94.1886 141.718 94.3248 143.825 94.4528 145.888C94.586 148.058 94.4821 150.236 94.1432 152.384L94.1349 152.375ZM155.25 69.6824C156.633 67.8058 158.285 67.3562 160.308 68.3007C161.959 69.2411 163.611 70.3011 165.237 71.4106C166.81 72.6549 168.176 74.1403 169.284 75.8115C170.421 77.4964 171.335 79.3207 172.005 81.2394C172.712 83.3633 173.146 85.5683 173.297 87.8016C173.338 89.2575 173.363 89.9876 173.404 91.4477C173.342 92.6561 173.045 92.9737 172.921 93.0562C172.876 93.0851 172.74 93.1758 172.356 93.0562C170.407 92.1818 168.408 91.3652 166.41 90.6269C165.345 90.0948 164.692 88.709 164.614 86.824C164.54 85.1742 164.494 84.3493 164.226 83.8172L164.197 83.7678C163.784 83.079 163.264 82.6748 162.711 82.6294C162.506 82.614 162.302 82.6561 162.12 82.7509C161.938 82.8456 161.787 82.9893 161.683 83.1656C161.245 83.875 161.076 85.1866 160.943 87.0715C160.833 88.6278 160.759 90.2378 160.721 91.9014C160.758 94.9741 160.778 96.5208 160.807 99.6225C160.877 101.169 160.989 102.728 161.138 104.246C161.286 105.764 161.484 107.208 161.963 108.086C162.07 108.31 162.231 108.504 162.432 108.65C162.632 108.796 162.866 108.89 163.112 108.922C163.358 108.955 163.609 108.926 163.841 108.838C164.073 108.749 164.279 108.604 164.441 108.416L164.494 108.354C164.837 107.909 164.849 107.15 164.878 105.636C164.878 104.663 165.122 103.929 165.518 103.574C165.622 103.483 165.743 103.414 165.875 103.371C166.006 103.329 166.145 103.313 166.282 103.326C168.243 103.739 170.237 104.18 172.207 104.687C172.579 104.828 173.549 105.261 173.772 107.463C173.797 108.767 173.805 109.414 173.825 110.722C173.735 112.784 173.413 114.36 172.801 115.494C172.234 116.586 171.366 117.493 170.299 118.109C169.088 118.8 167.736 119.212 166.344 119.313C164.28 119.358 163.256 119.387 161.183 119.453C158.945 119.346 157.137 118.364 155.663 116.442C154.098 114.38 152.971 111.74 152.314 108.565C151.618 105.278 151.234 101.933 151.166 98.5749C151.117 95.5805 151.092 92.4417 151.088 89.2864C151.111 85.6254 151.436 81.9725 152.058 78.3646C152.69 74.6195 153.763 71.6952 155.25 69.6824ZM145.836 81.2064C146.199 92.6562 146.521 104.176 146.967 115.551C147.024 116.693 146.737 117.825 146.142 118.802C145.942 119.199 145.639 119.537 145.266 119.779C144.892 120.021 144.46 120.159 144.015 120.179C142.653 120.249 141.253 120.352 139.924 120.385C139.098 120.423 138.441 120.047 137.9 119.202C137.286 118.211 136.963 117.068 136.967 115.902C136.922 113.58 136.835 111.196 136.769 108.804C136.769 108.478 136.769 108.317 136.744 107.979L135.948 108.02C134.986 108.065 134.019 108.119 133.057 108.177L132.273 108.226C132.273 108.54 132.273 108.701 132.273 109.018C132.252 111.419 132.211 113.803 132.215 116.141C132.233 117.322 131.937 118.486 131.356 119.515C130.84 120.41 130.213 120.847 129.383 120.889L125.382 121.066C124.963 121.088 124.547 120.99 124.182 120.785C123.816 120.58 123.517 120.275 123.317 119.907C122.721 118.969 122.424 117.871 122.467 116.76C122.636 105.36 122.735 93.7945 122.967 82.3118C123.206 77.1107 123.879 71.588 126.109 66.8984C127.781 63.3678 130.142 61.4622 132.962 61.3261C133.883 61.2642 134.816 61.2436 135.725 61.2354C138.512 61.2065 140.894 62.9141 142.583 66.2879C144.841 70.8084 145.543 76.1745 145.836 81.2064ZM117.822 75.8734C117.831 77.0238 117.628 78.1661 117.223 79.2431C116.893 80.1052 116.493 80.6578 116.034 80.8929C112.122 82.1327 108.298 83.6361 104.589 85.3928L104.077 85.6362V86.1724C104.077 88.7626 104.106 91.2703 104.135 93.712C104.135 94.1245 104.135 94.3348 104.135 94.7473L105.146 94.3761C108.061 93.2996 111.047 92.3138 114.011 91.4889C114.176 91.4889 114.511 91.4889 114.882 92.1818C115.279 92.9779 115.478 93.8581 115.46 94.7473C115.46 95.6547 115.481 96.5538 115.489 97.4612C115.512 98.4015 115.332 99.3357 114.961 100.2C114.875 100.464 114.737 100.707 114.554 100.916C114.372 101.125 114.149 101.296 113.9 101.417C110.914 101.978 107.905 102.617 104.961 103.31L104.284 103.471V104.147C104.336 106.413 104.392 108.631 104.453 110.8C104.453 111.138 104.453 111.307 104.478 111.65L105.336 111.526C109.052 110.977 112.843 110.462 116.554 110.016C116.806 110.016 117.174 110.136 117.554 110.8C117.947 111.526 118.153 112.338 118.152 113.163C118.185 114.835 118.223 116.492 118.264 118.133C118.298 118.949 118.131 119.761 117.777 120.497C117.434 121.181 117.083 121.322 116.835 121.384C110.997 121.561 105.159 121.627 99.3207 121.503C98.9078 121.478 98.3381 120.93 97.7889 120.006C97.0948 118.776 96.7121 117.396 96.6741 115.985C96.1704 106.28 96.0342 96.1868 96.1168 86.4611C96.147 84.3168 96.4891 82.1882 97.1325 80.1423C97.9582 77.4985 98.6188 76.6282 98.912 76.3683C104.449 72.1242 110.06 68.2471 116.48 65.4507C116.749 65.4218 117.009 65.6816 117.252 66.2219C117.664 67.2271 117.855 68.3085 117.814 69.3937C117.822 71.6072 117.825 73.7671 117.822 75.8734ZM88.0944 87.5046C88.3194 87.494 88.5439 87.5328 88.7523 87.6184C88.9606 87.7039 89.1476 87.834 89.3001 87.9995C90.452 89.0595 91.2778 90.7506 91.6907 92.8912C92.1255 95.2613 92.3369 97.6668 92.3224 100.076C92.3224 104.036 91.6452 107.051 90.3281 108.973L90.0515 109.385L90.2951 109.798C91.6122 111.984 92.5453 114.999 92.9912 118.459C93.0701 119.179 92.9059 119.905 92.5247 120.522C92.4052 120.741 92.2244 120.92 92.0044 121.038C91.7844 121.156 91.5348 121.207 91.286 121.186C90.2992 121.128 89.329 121.062 88.3959 120.992C88.1339 120.982 87.8786 120.907 87.6525 120.775C87.4263 120.642 87.2364 120.456 87.0994 120.233C86.7319 119.696 86.4919 119.082 86.3975 118.439C86.1937 116.762 85.847 115.107 85.3612 113.489L85.0267 112.528L84.1721 113.118C83.7592 113.403 83.3463 113.679 82.9334 113.943L82.5907 114.166C82.5907 114.331 82.5907 114.409 82.5907 114.578C82.6279 115.914 82.6733 117.234 82.7228 118.575C82.7793 119.065 82.6448 119.558 82.3471 119.952C82.2388 120.102 82.0896 120.217 81.9174 120.283C81.7453 120.35 81.5576 120.365 81.3768 120.328C80.5511 120.229 79.7473 120.127 78.9656 120.022C78.5734 119.975 78.2104 119.791 77.9402 119.503C77.67 119.215 77.5098 118.841 77.4875 118.447C77.4214 113.172 77.4132 107.797 77.5866 102.6C77.6579 101.463 77.8972 100.343 78.2967 99.276C78.5761 98.3202 78.9934 97.4101 79.5354 96.5745C81.7278 93.7368 83.9285 91.1383 86.0796 88.7378C86.8682 87.9748 87.537 87.5582 88.1151 87.5046H88.0944ZM98.1729 147.129C97.7353 140.942 97.4834 134.574 97.0829 128.416C97.0171 127.698 97.1945 126.979 97.5866 126.374C97.7276 126.132 97.9378 125.938 98.19 125.816C98.4423 125.694 98.7253 125.65 99.0028 125.69C100.076 125.769 101.177 125.839 102.306 125.9C102.673 125.925 103.028 126.042 103.337 126.24C103.647 126.438 103.901 126.711 104.077 127.034C104.598 127.835 104.884 128.765 104.903 129.719C105.146 136.822 105.588 144.064 105.947 151.237C106.067 152.705 106.228 154.24 106.426 155.803C106.654 157.601 106.872 158.909 107.273 159.861C107.378 160.167 107.564 160.438 107.81 160.647C108.056 160.856 108.354 160.995 108.673 161.049C108.888 161.071 109.105 161.029 109.296 160.929C109.488 160.828 109.646 160.674 109.75 160.484C110.138 159.812 110.254 158.661 110.324 156.772C110.382 155.283 110.423 153.732 110.378 152.235C110.167 144.898 109.783 137.242 109.383 129.88C109.315 128.958 109.531 128.037 110.002 127.24C110.158 126.93 110.401 126.671 110.7 126.494C110.999 126.317 111.343 126.23 111.691 126.242C112.892 126.242 114.123 126.271 115.357 126.271C115.766 126.269 116.168 126.379 116.519 126.589C116.87 126.8 117.156 127.102 117.347 127.463C117.924 128.376 118.233 129.432 118.239 130.511C118.388 138.76 118.788 147.232 118.945 155.506C118.988 158.943 118.749 162.378 118.231 165.776C117.727 169.195 116.782 171.963 115.514 173.757C114.366 175.386 113.078 175.687 111.348 174.739C110.171 173.959 108.986 173.118 107.822 172.243C105.927 170.622 104.222 168.119 102.727 164.844C101.346 161.839 100.279 158.701 99.5437 155.477C98.8851 152.732 98.4338 149.942 98.1936 147.129H98.1729ZM190.811 117.812C190.817 118.033 190.775 118.252 190.689 118.455C190.603 118.659 190.474 118.841 190.312 118.991C190.118 119.187 189.882 119.337 189.621 119.427C189.361 119.518 189.083 119.548 188.809 119.515C187.517 119.453 186.864 119.424 185.551 119.379C185.24 119.381 184.933 119.309 184.654 119.171C184.375 119.033 184.132 118.832 183.945 118.583C183.514 118.064 183.266 117.417 183.239 116.743C183.049 109.233 182.768 101.705 182.442 94.1864C182.442 94.0173 182.442 93.9348 182.442 93.7739L182.071 93.5099C180.729 92.5448 179.375 91.6126 178.041 90.7382C177.51 90.2892 177.1 89.715 176.848 89.0678C176.502 88.2987 176.304 87.4721 176.261 86.6302C176.195 84.8814 176.162 84.0111 176.096 82.2705C176.059 81.3301 176.253 80.9053 176.418 80.7197C176.44 80.6899 176.468 80.6658 176.501 80.6496C176.622 80.6845 176.732 80.7482 176.823 80.8352C182.513 86.2872 187.889 92.0571 192.925 98.117C193.372 98.6788 193.752 99.2906 194.057 99.9401C194.296 100.394 194.462 100.882 194.548 101.388C194.631 102.233 194.672 102.658 194.75 103.512C194.75 103.557 194.75 103.594 194.75 103.623C194.614 103.558 194.486 103.477 194.37 103.38C193.132 102.299 192.001 101.318 190.898 100.406L189.688 99.3915C189.73 99.969 189.75 100.258 189.787 100.835C190.167 106.49 190.531 112.165 190.811 117.812Z" fill="#231F20"/>
<path d="M139.313 39.1237L140.233 40.3611C140.621 40.8807 141.001 41.4004 141.381 41.9243C141.682 42.3367 141.988 42.7492 142.285 43.1616C142.665 43.6951 143.041 44.2299 143.412 44.7661C143.706 45.1785 143.999 45.591 144.288 46.0323C144.665 46.5822 145.036 47.1322 145.403 47.6821L146.249 48.9525C146.621 49.5272 146.991 50.1032 147.36 50.6807C147.628 51.0931 147.892 51.5056 148.157 51.918C148.421 52.3305 148.652 52.7182 148.9 53.1183C160.095 55.0726 170.649 59.7136 179.652 66.6423C188.656 73.571 195.84 82.5801 200.588 92.8954C203.049 88.1357 205.251 83.3443 207.195 78.5213C213.644 62.481 216.873 46.6139 216.278 33.8443C215.684 21.0747 211.464 11.9182 204.053 7.43894C188.718 -1.87428 161.988 10.8128 138.697 38.3112C138.904 38.5793 139.106 38.8556 139.313 39.1237Z" fill="#ED203D"/>
<path d="M125.109 190.857C113.913 188.905 103.359 184.265 94.3547 177.336C85.3508 170.407 78.1667 161.397 73.4206 151.08C70.9639 155.84 68.7467 160.641 66.8145 165.454C60.3652 181.495 57.1406 197.362 57.731 210.131C58.3215 222.901 62.5535 232.078 69.9648 236.574C85.2992 245.871 112.029 233.184 135.32 205.685C131.665 200.921 128.257 195.971 125.109 190.857Z" fill="#ED203D"/>
<path d="M63.5898 162.365C65.8919 156.823 68.48 151.405 71.3438 146.131C67.4169 135.469 66.1542 124.012 67.6651 112.752C69.1761 101.493 73.4152 90.7717 80.0143 81.5199C79.5436 81.5446 79.0688 81.5611 78.594 81.59L77.3884 81.6601C76.6782 81.7055 75.9722 81.7509 75.2662 81.8045L74.0028 81.9035L71.9383 82.0891L70.6997 82.2046L68.4949 82.4479L67.442 82.5675C66.3727 82.6995 65.3033 82.8397 64.2422 82.98C47.1076 85.4217 31.7401 90.5609 20.9638 97.4571C10.1876 104.353 4.3329 112.615 4.13472 121.276C3.74248 139.189 28.1067 155.968 63.5898 162.365Z" fill="#ED203D"/>
<path d="M65.2951 78.6822C71.2686 77.9008 77.2785 77.4272 83.3009 77.2633C89.8539 69.3897 98.0617 63.0538 107.342 58.7056C116.622 54.3573 126.746 52.1033 136.996 52.1036C139.213 52.1036 141.41 52.215 143.578 52.4171C140.687 47.9131 137.628 43.5988 134.424 39.5196C123.743 25.9086 111.6 15.1848 100.237 9.31973C88.8748 3.45463 78.8005 2.51836 71.1951 6.68003C55.4684 15.3127 53.1026 44.7826 65.2951 78.6822Z" fill="#ED203D"/>
<path d="M135.939 85.5248C135.853 83.413 135.745 81.8127 135.671 80.6455C135.555 78.8059 135.258 78.1707 135.076 77.882L134.841 77.5191L133.842 77.5562L133.611 77.8985C133.247 78.4265 133.049 79.3339 132.987 80.7568C132.934 81.9942 132.863 83.644 132.781 85.6609C132.682 89.5586 132.583 93.3078 132.492 96.9416C132.492 97.2839 132.492 97.4571 132.467 97.7995L133.313 97.7458C134.052 97.6963 134.796 97.6551 135.539 97.6221L136.365 97.585C136.365 97.255 136.365 97.09 136.336 96.7601C136.191 93.147 136.096 89.3813 135.939 85.5248Z" fill="#231F20"/>
<path d="M165.419 144.229C165.44 143.025 165.452 142.427 165.469 141.227C165.505 139.191 165.176 137.166 164.498 135.246L164.387 134.953L164.102 134.821C163.462 134.52 162.612 134.516 161.501 134.821L160.882 134.982C160.882 135.242 160.882 135.37 160.882 135.626C160.835 139.956 160.766 144.287 160.675 148.618C160.675 149.03 160.675 149.249 160.65 149.674L162.24 149.195L162.364 149.101C164.3 147.607 165.324 145.978 165.419 144.229Z" fill="#231F20"/>
<path d="M87.2274 135.848C87.1324 134.904 87.0044 133.951 86.8517 133.011C86.7597 132.133 86.5167 131.278 86.1332 130.482C86.0154 130.269 85.8517 130.084 85.654 129.942C85.4563 129.799 85.2293 129.702 84.9896 129.657C84.8241 129.629 84.6542 129.641 84.4944 129.693C84.3347 129.744 84.19 129.834 84.073 129.954C83.7592 130.309 83.594 130.948 83.5238 132.095C83.4784 132.887 83.4578 133.708 83.4743 134.57C83.5569 135.935 83.6436 137.321 83.7385 138.752C83.8335 139.647 83.9615 140.587 84.1225 141.553C84.2441 142.485 84.4841 143.399 84.8368 144.271C85.2084 145.096 85.7451 145.459 86.2241 145.508C86.3706 145.529 86.5199 145.517 86.6617 145.475L86.8806 145.409L87.0044 145.219C87.2893 144.807 87.4421 144.122 87.4916 143.108C87.5329 142.246 87.5412 141.338 87.5205 140.373C87.4214 138.872 87.3223 137.362 87.2274 135.848Z" fill="#231F20"/>
<path d="M82.4751 108.729L83.9161 108.115L84.011 108.037C85.2786 106.964 85.9681 105.743 85.997 104.531V104.506C85.997 103.842 85.997 103.165 85.9722 102.481C85.9905 101.115 85.7423 99.7591 85.2414 98.4883L85.0598 98.0552H84.5519C84.0275 98.084 83.4495 98.381 82.6857 99.0451L82.4173 99.276V99.6143C82.4173 102.291 82.4173 104.976 82.471 107.608C82.4627 108.078 82.4669 108.284 82.4751 108.729Z" fill="#231F20"/>
<path d="M78.3091 99.2967C77.9095 100.364 77.6702 101.484 77.599 102.621C77.4255 107.818 77.4338 113.192 77.4999 118.468C77.5221 118.862 77.6824 119.235 77.9526 119.523C78.2228 119.811 78.5857 119.995 78.978 120.043C79.757 120.148 80.5607 120.249 81.3892 120.348C81.57 120.386 81.7577 120.37 81.9298 120.304C82.102 120.237 82.2512 120.122 82.3595 119.973C82.6572 119.579 82.7917 119.086 82.7352 118.595C82.6857 117.255 82.6403 115.935 82.6031 114.599C82.6031 114.438 82.6031 114.36 82.6031 114.186L82.9458 113.964C83.3587 113.704 83.7716 113.427 84.1844 113.139L85.0391 112.549L85.3735 113.51C85.8593 115.127 86.206 116.783 86.4099 118.459C86.5042 119.103 86.7443 119.717 87.1118 120.253C87.2487 120.477 87.4387 120.663 87.6648 120.795C87.891 120.928 88.1463 121.002 88.4082 121.012C89.3537 121.083 90.324 121.148 91.2984 121.206C91.5471 121.228 91.7968 121.177 92.0168 121.059C92.2368 120.941 92.4176 120.761 92.5371 120.542C92.9183 119.926 93.0825 119.2 93.0036 118.48C92.5577 115.003 91.6246 111.988 90.3075 109.818L90.0639 109.406L90.3405 108.993C91.6576 107.071 92.3306 104.044 92.3347 100.097C92.3493 97.6874 92.1378 95.2819 91.703 92.9119C91.2901 90.7712 90.4644 89.0802 89.3124 88.0202C89.1599 87.8546 88.9729 87.7245 88.7646 87.639C88.5563 87.5535 88.3318 87.5146 88.1068 87.5252C87.537 87.5788 86.8682 87.9954 86.1043 88.7626C83.9532 91.1672 81.7526 93.7657 79.5601 96.5992C79.0142 97.4329 78.5927 98.3416 78.3091 99.2967ZM82.4049 99.2967L82.6733 99.0657C83.4371 98.4016 84.0152 98.1047 84.5395 98.0758H85.0474L85.2455 98.5089C85.7464 99.7797 85.9947 101.136 85.9763 102.501C85.9763 103.186 85.9763 103.863 86.0011 104.527V104.551C85.9722 105.764 85.2827 106.985 84.0152 108.057L83.9202 108.136L82.4792 108.75C82.4792 108.305 82.4792 108.086 82.4792 107.645C82.4421 105.022 82.4214 102.328 82.4256 99.6514L82.4049 99.2967Z" fill="#FCBA28"/>
<path d="M116.517 65.4589C110.089 68.2553 104.486 72.1324 98.9491 76.3766C98.656 76.6364 97.9871 77.5067 97.1696 80.1505C96.5263 82.1965 96.1841 84.325 96.1539 86.4693C96.0713 96.1991 96.2076 106.288 96.7113 115.993C96.7493 117.404 97.132 118.785 97.8261 120.014C98.3752 120.938 98.9326 121.487 99.3579 121.511C105.196 121.635 111.034 121.569 116.872 121.392C117.12 121.346 117.471 121.19 117.814 120.505C118.168 119.769 118.335 118.958 118.301 118.142C118.26 116.492 118.222 114.835 118.189 113.172C118.19 112.346 117.984 111.534 117.591 110.808C117.211 110.144 116.843 110.037 116.592 110.025C112.876 110.47 109.098 110.986 105.374 111.534L104.515 111.658C104.515 111.316 104.515 111.146 104.49 110.808C104.429 108.636 104.373 106.418 104.321 104.155V103.479L104.998 103.318C107.942 102.625 110.952 101.986 113.937 101.425C114.186 101.304 114.409 101.134 114.591 100.925C114.774 100.715 114.912 100.472 114.998 100.208C115.369 99.3439 115.55 98.4098 115.526 97.4695C115.526 96.5621 115.506 95.6629 115.497 94.7555C115.515 93.8663 115.317 92.9861 114.919 92.1901C114.548 91.5095 114.213 91.493 114.048 91.4972C111.084 92.3221 108.099 93.2955 105.184 94.3843L104.172 94.7555C104.172 94.3431 104.172 94.1327 104.172 93.7203C104.143 91.2786 104.123 88.7708 104.114 86.1806V85.6444L104.626 85.4011C108.32 83.6421 112.129 82.1346 116.026 80.8888C116.484 80.6579 116.885 80.1052 117.215 79.239C117.62 78.162 117.823 77.0197 117.814 75.8693C117.814 73.763 117.823 71.6059 117.843 69.3979C117.884 68.3127 117.693 67.2312 117.281 66.2261C117.046 65.6899 116.786 65.43 116.517 65.4589Z" fill="#FCBA28"/>
<path d="M135.729 61.256C134.82 61.256 133.887 61.2849 132.967 61.3467C130.147 61.4828 127.785 63.409 126.113 66.919C123.883 71.6169 123.223 77.1314 122.971 82.3324C122.739 93.8151 122.64 105.38 122.471 116.781C122.428 117.892 122.725 118.989 123.322 119.928C123.521 120.296 123.821 120.6 124.186 120.806C124.551 121.011 124.967 121.108 125.386 121.087L129.387 120.909C130.213 120.868 130.844 120.431 131.36 119.536C131.941 118.507 132.237 117.343 132.219 116.162C132.219 113.823 132.256 111.439 132.277 109.039C132.277 108.721 132.277 108.56 132.277 108.247L133.062 108.197C134.019 108.14 134.986 108.086 135.952 108.041L136.749 107.999C136.749 108.321 136.749 108.482 136.773 108.824C136.839 111.217 136.926 113.601 136.972 115.923C136.967 117.088 137.29 118.231 137.905 119.222C138.446 120.047 139.09 120.46 139.928 120.406C141.257 120.373 142.657 120.27 144.019 120.2C144.47 120.181 144.908 120.042 145.285 119.796C145.663 119.55 145.968 119.206 146.166 118.802C146.761 117.825 147.049 116.693 146.992 115.551C146.546 104.176 146.224 92.6562 145.861 81.2064C145.568 76.1745 144.866 70.8084 142.612 66.3086C140.898 62.9347 138.516 61.2271 135.729 61.256ZM135.539 97.6303C134.796 97.6633 134.052 97.7046 133.313 97.7541L132.467 97.8077C132.467 97.4654 132.467 97.2921 132.492 96.9498C132.583 93.3161 132.682 89.5669 132.781 85.6692C132.863 83.6399 132.934 81.9942 132.987 80.7651C133.049 79.3421 133.247 78.4347 133.611 77.9068L133.842 77.5644L134.841 77.5273L135.076 77.8903C135.275 78.1955 135.555 78.8142 135.671 80.6537C135.745 81.8086 135.853 83.4213 135.939 85.5331C136.096 89.3895 136.191 93.1552 136.323 96.7766C136.323 97.1065 136.323 97.2715 136.352 97.6015L135.539 97.6303Z" fill="#FCBA28"/>
<path d="M152.062 78.3564C151.44 81.9642 151.115 85.6171 151.092 89.2781C151.092 92.4334 151.121 95.5722 151.171 98.5666C151.238 101.925 151.622 105.27 152.318 108.556C152.975 111.732 154.102 114.384 155.667 116.434C157.141 118.356 158.949 119.321 161.187 119.445C163.251 119.379 164.292 119.35 166.348 119.305C167.74 119.204 169.092 118.792 170.304 118.1C171.37 117.484 172.238 116.577 172.806 115.486C173.404 114.351 173.739 112.788 173.83 110.713C173.809 109.406 173.801 108.758 173.776 107.455C173.553 105.253 172.583 104.819 172.211 104.679C170.242 104.172 168.247 103.714 166.286 103.318C166.149 103.305 166.01 103.32 165.879 103.363C165.747 103.405 165.626 103.474 165.522 103.566C165.109 103.924 164.899 104.659 164.882 105.628C164.853 107.142 164.841 107.9 164.498 108.346L164.445 108.408C164.283 108.596 164.077 108.741 163.845 108.829C163.613 108.918 163.363 108.947 163.116 108.914C162.87 108.881 162.636 108.788 162.436 108.642C162.235 108.496 162.074 108.302 161.967 108.078C161.488 107.199 161.29 105.714 161.142 104.238C160.993 102.761 160.882 101.161 160.811 99.6143C160.782 96.5126 160.762 94.9659 160.725 91.8931C160.76 90.2433 160.835 88.6333 160.948 87.0633C161.08 85.1784 161.249 83.8667 161.687 83.1573C161.791 82.981 161.942 82.8374 162.124 82.7426C162.306 82.6479 162.51 82.6058 162.715 82.6211C163.268 82.6665 163.792 83.0707 164.201 83.7595L164.23 83.809C164.498 84.3369 164.544 85.1536 164.618 86.8158C164.697 88.7007 165.349 90.0866 166.414 90.6186C168.413 91.3569 170.411 92.1736 172.36 93.048C172.744 93.1717 172.88 93.081 172.925 93.048C173.049 92.9655 173.338 92.6355 173.408 91.4394C173.367 89.9793 173.342 89.2493 173.301 87.7933C173.15 85.5601 172.716 83.3551 172.009 81.2312C171.339 79.3154 170.424 77.4938 169.288 75.8115C168.18 74.1403 166.815 72.6549 165.242 71.4106C163.627 70.3011 161.939 69.2411 160.312 68.3007C158.289 67.3562 156.637 67.8058 155.254 69.6824C153.763 71.6952 152.69 74.6195 152.062 78.3564Z" fill="#FCBA28"/>
<path d="M189.787 100.827C189.75 100.249 189.73 99.9607 189.688 99.3833L190.898 100.398C192.001 101.318 193.136 102.291 194.37 103.372C194.486 103.468 194.614 103.55 194.75 103.615C194.75 103.586 194.75 103.549 194.75 103.504C194.672 102.65 194.631 102.225 194.548 101.38C194.462 100.874 194.296 100.385 194.057 99.9318C193.752 99.2823 193.372 98.6705 192.925 98.1088C187.889 92.0488 182.513 86.279 176.823 80.827C176.732 80.7399 176.622 80.6762 176.501 80.6413C176.468 80.6576 176.44 80.6817 176.418 80.7115C176.253 80.8971 176.059 81.3219 176.096 82.2623C176.162 84.0029 176.195 84.8731 176.261 86.6219C176.304 87.4638 176.502 88.2905 176.848 89.0595C177.1 89.7068 177.51 90.2809 178.041 90.73C179.375 91.6044 180.729 92.5365 182.071 93.5017L182.442 93.7656C182.442 93.9348 182.442 94.0173 182.442 94.1781C182.768 101.697 183.049 109.224 183.239 116.735C183.266 117.409 183.514 118.056 183.945 118.575C184.132 118.823 184.375 119.025 184.654 119.163C184.933 119.301 185.24 119.372 185.551 119.371C186.864 119.416 187.517 119.445 188.809 119.507C189.083 119.54 189.361 119.51 189.621 119.419C189.882 119.328 190.118 119.179 190.312 118.983C190.474 118.833 190.603 118.65 190.689 118.447C190.775 118.244 190.817 118.024 190.811 117.803C190.531 112.165 190.167 106.49 189.787 100.827Z" fill="#FCBA28"/>
<path d="M94.0565 139.713C93.8644 137.354 93.4496 135.019 92.8178 132.738C92.288 130.63 91.3449 128.648 90.0432 126.906C89.0664 125.559 87.6353 124.61 86.0135 124.234C85.0584 124.085 84.128 123.931 83.2224 123.772C82.085 123.587 80.9204 123.851 79.973 124.506C79.1655 125.078 78.5691 125.9 78.2761 126.844C77.9404 127.883 77.7812 128.971 77.8054 130.062C77.8302 131.118 77.8797 132.239 77.9416 133.332C78.0669 134.818 78.3436 136.287 78.7674 137.717C79.3766 139.791 80.1797 141.803 81.1663 143.726C82.3482 146.144 83.7923 148.425 85.4726 150.528L85.6997 150.783C85.6997 150.87 85.7327 150.911 85.7534 150.998C86.1291 152.582 86.5172 154.231 86.9053 155.947C87.2017 157.161 87.6324 158.338 88.1894 159.457C88.6666 160.552 89.3428 161.549 90.1836 162.398C91.1291 163.26 92.0829 164.122 93.0201 164.873C93.1409 164.975 93.2815 165.051 93.433 165.096C93.4659 165.039 93.4935 164.98 93.5156 164.918C93.7344 164.328 93.7055 163.417 93.466 162.311C93.0532 160.365 92.6403 158.467 92.2274 156.661C92.182 156.463 92.1572 156.364 92.1159 156.166L92.5288 155.914C93.2761 155.44 93.8335 154.219 94.1391 152.388C94.4814 150.25 94.5908 148.082 94.4652 145.921C94.3414 143.833 94.2051 141.73 94.0565 139.713ZM87.4916 143.136C87.4421 144.151 87.2893 144.823 87.0044 145.248L86.8806 145.438L86.6617 145.504C86.5199 145.546 86.3706 145.557 86.2241 145.537C85.7451 145.471 85.2084 145.091 84.8368 144.3C84.4841 143.428 84.2441 142.514 84.1225 141.581C83.9615 140.616 83.8335 139.676 83.7385 138.781C83.6436 137.35 83.5569 135.964 83.4743 134.599C83.4743 133.737 83.4743 132.916 83.5238 132.124C83.594 130.977 83.7592 130.338 84.073 129.983C84.19 129.863 84.3347 129.773 84.4944 129.721C84.6542 129.67 84.8241 129.658 84.9896 129.686C85.2293 129.731 85.4563 129.828 85.654 129.971C85.8517 130.113 86.0154 130.298 86.1332 130.511C86.5167 131.306 86.7597 132.162 86.8517 133.04C87.0044 133.98 87.1324 134.933 87.2274 135.877C87.3223 137.395 87.4214 138.901 87.5205 140.414C87.537 141.363 87.537 142.27 87.4916 143.136Z" fill="#FCBA28"/>
<path d="M102.727 164.836C104.222 168.115 105.927 170.61 107.822 172.235C108.986 173.109 110.171 173.951 111.348 174.73C113.078 175.679 114.366 175.378 115.514 173.749C116.782 171.955 117.727 169.187 118.231 165.768C118.749 162.37 118.988 158.935 118.945 155.498C118.788 147.224 118.388 138.752 118.239 130.503C118.231 129.426 117.922 128.374 117.347 127.463C117.16 127.104 116.879 126.802 116.534 126.59C116.188 126.378 115.791 126.263 115.386 126.259C114.147 126.259 112.909 126.259 111.72 126.23C111.372 126.217 111.028 126.305 110.729 126.482C110.429 126.659 110.187 126.918 110.031 127.228C109.56 128.024 109.344 128.945 109.412 129.868C109.824 137.23 110.196 144.885 110.407 152.223C110.452 153.737 110.407 155.287 110.353 156.76C110.283 158.653 110.167 159.804 109.779 160.472C109.675 160.661 109.517 160.816 109.325 160.916C109.134 161.017 108.917 161.059 108.701 161.037C108.383 160.982 108.085 160.843 107.839 160.634C107.593 160.425 107.407 160.154 107.302 159.849C106.889 158.896 106.682 157.589 106.455 155.791C106.257 154.227 106.096 152.693 105.976 151.225C105.617 144.052 105.175 136.809 104.932 129.707C104.913 128.752 104.627 127.822 104.106 127.022C103.93 126.699 103.676 126.426 103.366 126.228C103.056 126.029 102.702 125.912 102.335 125.888C101.217 125.827 100.116 125.757 99.0317 125.677C98.7542 125.638 98.4712 125.682 98.2189 125.804C97.9667 125.926 97.7565 126.12 97.6155 126.362C97.2234 126.967 97.0461 127.686 97.1118 128.404C97.5247 134.562 97.7642 140.942 98.2018 147.117C98.4425 149.926 98.8938 152.714 99.5519 155.456C100.284 158.684 101.348 161.827 102.727 164.836Z" fill="#FCBA28"/>
<path d="M145.877 167.595C145.518 166.815 145.163 166.737 144.998 166.733C141.08 167.411 137.102 167.687 133.128 167.558L132.364 167.529C132.364 167.224 132.364 167.075 132.364 166.77C132.364 163.85 132.364 161.016 132.364 158.253C132.364 157.894 132.364 157.717 132.364 157.362H133.26C136.376 157.408 139.492 157.247 142.587 156.879C143 156.76 143.346 156.343 143.66 155.642C144.063 154.741 144.271 153.766 144.271 152.78C144.271 151.678 144.271 151.13 144.3 150.024C144.336 149.138 144.147 148.257 143.751 147.463C143.384 146.758 143.008 146.638 142.748 146.613C139.531 146.927 136.278 147.1 133.09 147.129H132.302C132.302 146.816 132.302 146.659 132.302 146.341C132.277 143.751 132.252 141.198 132.227 138.682C132.227 138.34 132.227 138.166 132.227 137.824H133.082C137.079 137.729 141.162 137.473 145.2 137.077C145.398 137.028 145.861 136.867 146.307 135.984C146.701 135.199 146.902 134.331 146.893 133.452C146.893 131.753 146.893 130.062 146.893 128.379C146.916 127.554 146.721 126.737 146.327 126.011C145.915 125.314 145.531 125.186 145.25 125.162C138.623 125.545 132 125.904 125.365 126.094C124.874 126.131 124.259 126.832 123.664 128.057C122.901 129.758 122.547 131.614 122.632 133.477C122.805 145.079 123.268 156.958 123.458 168.7C123.458 169.686 123.478 170.181 123.491 171.175C123.537 173.668 123.941 176.142 124.688 178.521C125.646 181.408 126.34 181.759 126.472 181.821C133.049 183 137.706 183.058 144.325 182.089C144.713 181.907 145.114 181.326 145.46 180.439C145.893 179.304 146.132 178.105 146.166 176.892C146.241 174.728 146.305 172.612 146.36 170.544C146.427 169.537 146.262 168.528 145.877 167.595Z" fill="#FCBA28"/>
<path d="M165.601 171.286C165.782 171.592 166.014 171.967 167.017 171.262C168.297 170.367 169.602 169.41 170.89 168.428C171.937 167.551 172.744 166.423 173.235 165.149C173.809 163.942 174.127 162.629 174.168 161.293C173.97 156.995 173.124 153.815 171.538 151.282L171.27 150.87L171.55 150.42C173.388 147.471 174.379 143.937 174.503 139.895C174.599 137.534 174.395 135.171 173.896 132.862C173.359 130.646 172.303 128.59 170.816 126.861C169.259 124.955 167.417 123.953 165.332 123.908C161.616 124.139 157.934 124.382 154.362 124.613C153.821 124.675 153.123 125.417 152.492 126.704C151.661 128.445 151.238 130.352 151.253 132.281C151.038 146.213 151.01 160.509 150.547 174.582C150.454 175.946 150.701 177.312 151.266 178.558C151.811 179.647 152.368 179.519 152.855 179.313C154.123 178.777 155.427 178.17 156.732 177.51C157.591 177.073 158.355 176.092 158.995 174.598C159.626 173.19 159.97 171.67 160.006 170.127C160.126 167.24 160.225 164.44 160.316 161.738C160.316 161.602 160.316 161.532 160.316 161.396C161.616 160.039 162.261 159.358 163.545 158.005C163.673 158.554 163.739 158.83 163.871 159.375C164.284 161.091 164.626 163.998 164.808 168.201C164.813 169.279 165.085 170.339 165.601 171.286ZM162.356 149.088L162.232 149.183L160.642 149.661C160.642 149.249 160.642 149.026 160.667 148.606C160.758 144.275 160.826 139.944 160.873 135.613C160.873 135.358 160.873 135.23 160.873 134.97L161.493 134.809C162.603 134.516 163.454 134.52 164.094 134.809L164.379 134.941L164.49 135.234C165.168 137.154 165.497 139.179 165.46 141.214C165.46 142.415 165.432 143.013 165.411 144.217C165.324 145.978 164.3 147.607 162.356 149.088Z" fill="#FCBA28"/>
<path d="M194.969 131.34C196.146 128.362 196.6 126.614 196.526 125.389C196.497 124.906 196.48 124.663 196.451 124.184C196.433 124.012 196.378 123.845 196.29 123.695C196.202 123.546 196.082 123.417 195.939 123.318C195.516 122.976 194.98 122.803 194.437 122.831C193.47 122.831 192.481 122.831 191.468 122.831C191.181 122.815 190.894 122.867 190.631 122.982C190.367 123.097 190.135 123.273 189.953 123.495C189.579 123.923 189.388 124.48 189.42 125.046V125.1C189.42 125.45 189.42 125.801 189.42 126.152C189.466 128.936 189.117 131.714 188.384 134.401C188.347 134.553 188.33 134.628 188.293 134.776L187.009 135.259C186.91 134.957 186.86 134.805 186.757 134.504C185.891 131.893 185.431 129.165 185.394 126.416C185.374 125.974 185.361 125.756 185.341 125.314C185.355 124.704 185.13 124.111 184.713 123.664C184.528 123.452 184.299 123.283 184.042 123.169C183.784 123.055 183.504 122.999 183.223 123.005H183.086C181.967 123.042 180.824 123.087 179.664 123.132C179.298 123.132 178.938 123.223 178.617 123.397C178.296 123.57 178.022 123.821 177.822 124.126C177.334 124.811 177.074 125.632 177.079 126.473C177.079 127.381 177.079 127.834 177.079 128.746C177.079 131.336 177.876 134.541 179.354 137.968C181.204 142.262 182.43 143.231 183.004 143.429L183.512 143.607C183.512 143.829 183.512 143.941 183.512 144.163C183.483 147.612 183.462 151.241 183.342 154.99C183.309 155.964 183.458 156.64 183.755 156.822C183.999 156.966 184.581 156.648 185.262 155.997C186.402 154.908 187.574 153.77 188.739 152.619C189.625 151.736 190.341 150.699 190.853 149.558C191.293 148.684 191.536 147.724 191.563 146.745C191.522 143.965 191.526 141.256 191.48 138.665C191.48 138.562 191.48 138.509 191.48 138.406L191.629 138.199C192.546 136.95 193.648 134.685 194.969 131.34Z" fill="#FCBA28"/>
</svg>
