<?xml version="1.0" standalone="no"?><svg xmlns="http://www.w3.org/2000/svg" viewBox="0 0 1440 320"><path fill="#1a193b" fill-opacity="1" d="M0,128L17.1,133.3C34.3,139,69,149,103,181.3C137.1,213,171,267,206,288C240,309,274,299,309,272C342.9,245,377,203,411,165.3C445.7,128,480,96,514,74.7C548.6,53,583,43,617,48C651.4,53,686,75,720,96C754.3,117,789,139,823,149.3C857.1,160,891,160,926,154.7C960,149,994,139,1029,160C1062.9,181,1097,235,1131,266.7C1165.7,299,1200,309,1234,266.7C1268.6,224,1303,128,1337,106.7C1371.4,85,1406,139,1423,165.3L1440,192L1440,320L1422.9,320C1405.7,320,1371,320,1337,320C1302.9,320,1269,320,1234,320C1200,320,1166,320,1131,320C1097.1,320,1063,320,1029,320C994.3,320,960,320,926,320C891.4,320,857,320,823,320C788.6,320,754,320,720,320C685.7,320,651,320,617,320C582.9,320,549,320,514,320C480,320,446,320,411,320C377.1,320,343,320,309,320C274.3,320,240,320,206,320C171.4,320,137,320,103,320C68.6,320,34,320,17,320L0,320Z"></path></svg>