<?xml version="1.0" standalone="no"?><svg xmlns="http://www.w3.org/2000/svg" viewBox="0 0 1440 320"><path fill="#1a193b" fill-opacity="1" d="M0,0L18.5,42.7C36.9,85,74,171,111,202.7C147.7,235,185,213,222,218.7C258.5,224,295,256,332,250.7C369.2,245,406,203,443,165.3C480,128,517,96,554,117.3C590.8,139,628,213,665,224C701.5,235,738,181,775,186.7C812.3,192,849,256,886,261.3C923.1,267,960,213,997,186.7C1033.8,160,1071,160,1108,149.3C1144.6,139,1182,117,1218,106.7C1255.4,96,1292,96,1329,106.7C1366.2,117,1403,139,1422,149.3L1440,160L1440,320L1421.5,320C1403.1,320,1366,320,1329,320C1292.3,320,1255,320,1218,320C1181.5,320,1145,320,1108,320C1070.8,320,1034,320,997,320C960,320,923,320,886,320C849.2,320,812,320,775,320C738.5,320,702,320,665,320C627.7,320,591,320,554,320C516.9,320,480,320,443,320C406.2,320,369,320,332,320C295.4,320,258,320,222,320C184.6,320,148,320,111,320C73.8,320,37,320,18,320L0,320Z"></path></svg>