<?xml version="1.0" standalone="no"?><svg xmlns="http://www.w3.org/2000/svg" viewBox="0 0 1440 320"><path fill="#1a193b" fill-opacity="1" d="M0,224L26.7,202.7C53.3,181,107,139,160,133.3C213.3,128,267,160,320,165.3C373.3,171,427,149,480,117.3C533.3,85,587,43,640,58.7C693.3,75,747,149,800,197.3C853.3,245,907,267,960,256C1013.3,245,1067,203,1120,160C1173.3,117,1227,75,1280,53.3C1333.3,32,1387,32,1413,32L1440,32L1440,0L1413.3,0C1386.7,0,1333,0,1280,0C1226.7,0,1173,0,1120,0C1066.7,0,1013,0,960,0C906.7,0,853,0,800,0C746.7,0,693,0,640,0C586.7,0,533,0,480,0C426.7,0,373,0,320,0C266.7,0,213,0,160,0C106.7,0,53,0,27,0L0,0Z"></path></svg>