<?xml version="1.0" standalone="no"?><svg xmlns="http://www.w3.org/2000/svg" viewBox="0 0 1440 320"><path fill="#1a193b" fill-opacity="1" d="M0,288L21.8,250.7C43.6,213,87,139,131,144C174.5,149,218,235,262,272C305.5,309,349,299,393,272C436.4,245,480,203,524,192C567.3,181,611,203,655,186.7C698.2,171,742,117,785,128C829.1,139,873,213,916,240C960,267,1004,245,1047,218.7C1090.9,192,1135,160,1178,133.3C1221.8,107,1265,85,1309,101.3C1352.7,117,1396,171,1418,197.3L1440,224L1440,0L1418.2,0C1396.4,0,1353,0,1309,0C1265.5,0,1222,0,1178,0C1134.5,0,1091,0,1047,0C1003.6,0,960,0,916,0C872.7,0,829,0,785,0C741.8,0,698,0,655,0C610.9,0,567,0,524,0C480,0,436,0,393,0C349.1,0,305,0,262,0C218.2,0,175,0,131,0C87.3,0,44,0,22,0L0,0Z"></path></svg>